<svg id="Ebene_1" data-name="Ebene 1" xmlns="http://www.w3.org/2000/svg" viewBox="0 0 170.079 76.932">
  <title>ce7de824-3c70-423a-9029-293c7616df82</title>
  <g>
    <g>
      <path d="M72.784,30.519V30.5C72.78,30.455,72.76,30.674,72.784,30.519Z"/>
      <path d="M158.118,34.192a12.038,12.038,0,0,0,11.961-11.958V21.652A11.92,11.92,0,0,0,158.172,9.747h-1.058a11.92,11.92,0,0,0-11.906,11.905v9.6a11.836,11.836,0,0,0,2.148,6.809H142.62c-3.754,0-6.925-2.961-6.889-7.435a11.9,11.9,0,0,0-5.414-9.651,11.87,11.87,0,0,0,3.83-8.736,2.549,2.549,0,0,0-5.1,0,6.835,6.835,0,0,1-6.809,6.832l-5.064-.011V2.579a2.548,2.548,0,1,0-5.1,0s0,28.847.014,28.935c-0.189,3.586-3.158,6.623-7.644,6.623-4.539,0-7.29-2.93-7.489-6.506,0.007-.158-0.012-19.4-0.012-19.4a2.548,2.548,0,0,0-5.1,0V31.7a6.912,6.912,0,0,1-7.006,6.35H84.425a7.086,7.086,0,0,1-6.511-7.011l0-.423A11.922,11.922,0,0,0,67.739,19.27a11.784,11.784,0,0,0,2.22-7.334C69.959,5.371,64.557,0,57.359,0,50,0,45.026,5.371,45.026,11.936v7.208H38.507A20.384,20.384,0,0,0,18.227.541H16.964A2.549,2.549,0,0,0,14.415,3.09v6.968H2.548a2.548,2.548,0,1,0,0,5.1H14.415v11.83H2.548a2.549,2.549,0,0,0,0,5.1H14.415V39.2a2.548,2.548,0,0,0,2.549,2.547h1.143A20.385,20.385,0,0,0,38.262,24.24h6.764v7.008a11.918,11.918,0,0,0,11.905,11.9h10a12.534,12.534,0,0,0,8.407-4.691A11.889,11.889,0,0,0,84.8,43.153l0.432-.027a12.58,12.58,0,0,0,9.14-4.562,12.2,12.2,0,0,0,10.069,4.563c7.326,0,12.756-5.408,12.756-11.973,0-.178.014-7,0.014-7h7.008a6.9,6.9,0,0,1,6.5,6.99l0.006,0.433a11.916,11.916,0,0,0,11.9,11.578h24.752a2.548,2.548,0,0,0,0-5.1H157.114a6.816,6.816,0,0,1-6.141-3.871S157.944,34.231,158.118,34.192ZM50.123,12.381V11.936c0-3.754,2.811-6.819,7.209-6.823,4.878,0,7.506,3.054,7.528,7.014a1.314,1.314,0,0,0-.006.137,6.753,6.753,0,0,1-6.257,6.88H50.123V12.381ZM65.954,38.053l-9.022,0a6.816,6.816,0,0,1-6.808-6.809V24.24H66.018c3.494,0,6.753,2.968,6.767,6.26v0.018C72.784,35.174,69.707,38.053,65.954,38.053Zm84.352-8.963V21.97c0-.053-0.006-0.105-0.008-0.159s0.008-.105.008-0.159a6.816,6.816,0,0,1,6.809-6.809h1.058a6.815,6.815,0,0,1,6.807,6.747v0.705c-0.033,3.726-2.889,6.795-7.295,6.795h-7.379Z"/>
      <path d="M94.4,7.466a2.548,2.548,0,0,0,2.548-2.548V2.579a2.548,2.548,0,1,0-5.1,0V4.918A2.548,2.548,0,0,0,94.4,7.466Z"/>
    </g>
    <g>
      <polygon points="48.851 51.602 46.529 51.602 46.529 71.174 57.119 71.174 57.119 69.073 48.851 69.073 48.851 51.602"/>
      <path d="M66.262,56.645c-3.357,0-6.755,2.585-6.755,7.525,0,4.233,2.76,7.307,6.562,7.307H66.1c3.384,0,6.809-2.586,6.809-7.527C72.907,59.649,70.174,56.645,66.262,56.645Zm-0.027,2.1c3.191,0,4.349,3.146,4.349,5.26,0,3.06-1.905,5.367-4.46,5.367-2.448,0-4.294-2.273-4.294-5.285C61.83,61.429,63.192,58.747,66.235,58.747Z"/>
      <path d="M88.668,67.45v-10.5H86.346v8.738a4.2,4.2,0,0,1-.208,1.261,3.9,3.9,0,0,1-3.454,2.374c-1.288,0-3-.46-3-4.434v-7.94H77.361v8.188c0,5.885,3.842,6.342,5.02,6.342A5.565,5.565,0,0,0,86.5,69.7l0.051,1.474H88.82l-0.044-.54C88.7,69.708,88.668,68.726,88.668,67.45Z"/>
      <path d="M100.622,56.645a5.705,5.705,0,0,0-4.151,1.73l-0.051-1.428H94.157L94.2,57.487c0.077,0.99.107,1.867,0.107,3.129V71.174H96.63V62.461a4.189,4.189,0,0,1,.143-1.012,3.728,3.728,0,0,1,3.49-2.7c2.615,0,3.164,2.23,3.164,4.1v8.326h2.323V62.739C105.751,58.241,102.988,56.645,100.622,56.645Z"/>
      <path d="M120.7,58.262a5.371,5.371,0,0,0-4.07-1.617c-3.128,0-6.453,2.638-6.453,7.525,0,3.993,2.655,7,6.177,7a5.774,5.774,0,0,0,4.157-1.606v0.417c0,3.261-1.405,4.846-4.295,4.846a6.639,6.639,0,0,1-3.669-1.022l-0.49-.316-0.867,1.942,0.316,0.239a7.884,7.884,0,0,0,4.518,1.258,7.215,7.215,0,0,0,4.836-1.708c1.365-1.3,1.974-3.3,1.974-6.48V60.864c0-1.455.032-2.465,0.108-3.374l0.046-.542H120.75Zm-4.016,10.81c-3.09,0-4.185-2.715-4.185-5.039,0-3.162,1.7-5.287,4.24-5.287a3.82,3.82,0,0,1,3.635,2.674,3.329,3.329,0,0,1,.137,1.125V65.19a4.341,4.341,0,0,1-.189,1.233A3.9,3.9,0,0,1,116.686,69.073Z"/>
      <path d="M133.825,56.645c-3.8,0-6.452,3.151-6.452,7.664,0,4.272,2.682,7.141,6.672,7.141a9.2,9.2,0,0,0,4.4-.916l0.361-.2-0.633-1.961-0.518.25a7.257,7.257,0,0,1-3.448.7c-2.743,0-4.375-1.777-4.53-4.9h9.644l0.087-.393a3.833,3.833,0,0,0,.066-0.906C139.477,60.717,138.287,56.645,133.825,56.645Zm-0.166,2.1a3.168,3.168,0,0,1,2.352.878,4.431,4.431,0,0,1,1.074,2.751h-7.243C130.1,61.161,130.966,58.747,133.659,58.747Z"/>
    </g>
  </g>
</svg>
