<svg id="Ebene_1" data-name="Ebene 1" xmlns="http://www.w3.org/2000/svg" viewBox="0 0 269.109 167.365">
  <defs>
    <style>
      .cls-1 {
        fill: #0d0412;
      }
    </style>
  </defs>
  <title>e3190707-92c1-430f-a9ba-4e34b3523536</title>
  <g>
    <g>
      <path class="cls-1" d="M165.463,12.8a43.715,43.715,0,1,0,0,61.824A43.711,43.711,0,0,0,165.463,12.8ZM113.205,65.062a30.188,30.188,0,0,1,40.371-44.785l-4.48,4.481a3.124,3.124,0,0,0,4.418,4.417l4.481-4.481A30.188,30.188,0,0,1,113.205,65.062Z" transform="translate(0 0)"/>
      <path class="cls-1" d="M145.922,50.669l-5.332-5.332,7.287-1.952a3.124,3.124,0,0,0-1.617-6.035L138.973,39.3l1.951-7.287a3.124,3.124,0,1,0-6.035-1.618l-1.953,7.287L127.6,32.349a3.125,3.125,0,0,0-4.42,4.418l5.336,5.334-7.287,1.952a3.124,3.124,0,0,0,1.617,6.035l7.287-1.95-1.951,7.286a3.124,3.124,0,0,0,6.035,1.618l1.951-7.288,5.334,5.332A3.123,3.123,0,0,0,145.922,50.669Z" transform="translate(0 0)"/>
    </g>
    <g>
      <path class="cls-1" d="M22.707,115.953a9.668,9.668,0,0,0-9.635-9.678H2.661A2.634,2.634,0,0,0,0,108.937v25.871a2.684,2.684,0,0,0,5.367,0v-9.265h7.264a5.121,5.121,0,0,1,3.782,2.208A3.456,3.456,0,0,1,16.9,129.5c0,0.5.047,5.306,0.047,5.306a2.684,2.684,0,0,0,5.367,0s-0.048-5.176-.047-5.3a8.539,8.539,0,0,0-1.489-4.874,6.922,6.922,0,0,0-1.352-1.491A9.461,9.461,0,0,0,22.707,115.953Zm-17.34-4.311h7.7a4.293,4.293,0,0,1,4.266,4.311,4.249,4.249,0,0,1-4.266,4.224h-7.7v-8.534Z" transform="translate(0 0)"/>
      <path class="cls-1" d="M43.135,108.009a2.667,2.667,0,0,0-2.453-1.691h-0.2a2.707,2.707,0,0,0-2.46,1.7l-9.691,25.835a2.733,2.733,0,0,0,1.605,3.477,2.852,2.852,0,0,0,.911.142,2.709,2.709,0,0,0,2.515-1.7l2.087-5.539h10.31l2.084,5.536a2.627,2.627,0,0,0,2.474,1.7,2.671,2.671,0,0,0,.921-0.146,2.736,2.736,0,0,0,1.594-3.48Zm-5.745,16.9,3.189-8.469,3.191,8.469H37.39Z" transform="translate(0 0)"/>
      <path class="cls-1" d="M67.07,106.275H61.9a2.634,2.634,0,0,0-2.661,2.662v25.871A2.664,2.664,0,0,0,61.9,137.47H67.07A15.6,15.6,0,0,0,67.07,106.275Zm-2.47,5.367h2.47a10.231,10.231,0,0,1,0,20.461H64.6V111.642Z" transform="translate(0 0)"/>
      <path class="cls-1" d="M106.745,120.288a25.453,25.453,0,0,0-6.2-1.86,14.966,14.966,0,0,1-5.385-1.891,3.9,3.9,0,0,1-1.114-1.067,1.885,1.885,0,0,1-.27-1.095,3.3,3.3,0,0,1,1.566-2.562,8.142,8.142,0,0,1,4.762-1.441c2.564,0,4.652,1.252,6.922,2.765a2.523,2.523,0,0,0,3.457-.724,2.394,2.394,0,0,0,.374-1.863,2.562,2.562,0,0,0-1.059-1.6l-0.1-.066c-2.267-1.471-5.372-3.482-9.591-3.482a13.244,13.244,0,0,0-7.734,2.374,8.3,8.3,0,0,0-3.609,6.6,7.02,7.02,0,0,0,1.046,3.729,9.7,9.7,0,0,0,4.183,3.514,23.423,23.423,0,0,0,5.806,1.728,17.5,17.5,0,0,1,5.915,2.024,3.892,3.892,0,0,1,1.24,1.235,2.269,2.269,0,0,1,.358,1.275,3.7,3.7,0,0,1-1.782,2.955,9.192,9.192,0,0,1-5.338,1.574h-0.108c-2.987,0-6.233-1.789-8.1-3.321a2.607,2.607,0,0,0-3.559.35,2.58,2.58,0,0,0,.393,3.549,19.115,19.115,0,0,0,11.38,4.437h0a13.99,13.99,0,0,0,8.258-2.547,8.7,8.7,0,0,0,3.876-7,7.375,7.375,0,0,0-1.09-3.861A10.423,10.423,0,0,0,106.745,120.288Z" transform="translate(0 0)"/>
      <path class="cls-1" d="M136.819,106.275H118.1a2.634,2.634,0,0,0-2.661,2.662,2.686,2.686,0,0,0,2.661,2.705h6.678v23.166a2.665,2.665,0,0,0,2.662,2.662,2.633,2.633,0,0,0,2.662-2.662V111.642h6.722a2.719,2.719,0,0,0,2.661-2.705A2.664,2.664,0,0,0,136.819,106.275Z" transform="translate(0 0)"/>
      <path class="cls-1" d="M155.043,108.009a2.667,2.667,0,0,0-2.452-1.691h-0.2a2.7,2.7,0,0,0-2.458,1.7l-9.693,25.835a2.733,2.733,0,0,0,1.605,3.477,2.856,2.856,0,0,0,.911.142,2.708,2.708,0,0,0,2.515-1.7l2.086-5.538h10.311l2.086,5.536a2.625,2.625,0,0,0,2.472,1.7,2.654,2.654,0,0,0,.922-0.146,2.737,2.737,0,0,0,1.593-3.48Zm-5.746,16.9,3.19-8.47,3.19,8.47H149.3Z" transform="translate(0 0)"/>
      <path class="cls-1" d="M185.775,106.275H167.052a2.635,2.635,0,0,0-2.663,2.662,2.687,2.687,0,0,0,2.663,2.705h6.677v23.166a2.666,2.666,0,0,0,2.664,2.662,2.633,2.633,0,0,0,2.661-2.662V111.642h6.722a2.719,2.719,0,0,0,2.661-2.705A2.664,2.664,0,0,0,185.775,106.275Z" transform="translate(0 0)"/>
      <path class="cls-1" d="M198.023,106.275a2.634,2.634,0,0,0-2.662,2.662v25.871a2.633,2.633,0,0,0,2.662,2.662,2.687,2.687,0,0,0,2.705-2.662V108.937A2.687,2.687,0,0,0,198.023,106.275Z" transform="translate(0 0)"/>
      <path class="cls-1" d="M223.284,105.4a14.926,14.926,0,0,0-10.927,4.771,16.6,16.6,0,0,0,0,22.53,15.063,15.063,0,0,0,10.927,4.77,14.647,14.647,0,0,0,10.66-4.769,16.241,16.241,0,0,0,4.5-11.267,16.409,16.409,0,0,0-4.493-11.261A14.522,14.522,0,0,0,223.284,105.4Zm6.744,23.5a9.126,9.126,0,0,1-13.67,0,10.706,10.706,0,0,1-2.911-7.455,10.927,10.927,0,0,1,2.915-7.5,9.212,9.212,0,0,1,13.666,0,11.1,11.1,0,0,1,2.915,7.5A10.876,10.876,0,0,1,230.028,128.894Z" transform="translate(0 0)"/>
      <path class="cls-1" d="M266.448,106.713a2.621,2.621,0,0,0-2.617,2.618v17.293L250.12,107.653a2.728,2.728,0,0,0-3.684-.583,2.626,2.626,0,0,0-1.066,2.262v25.476a2.64,2.64,0,1,0,5.28,0V117.386l13.557,18.8a1.212,1.212,0,0,0,.251.313,2.643,2.643,0,0,0,1.99.967,2.7,2.7,0,0,0,2.661-2.662V109.332A2.676,2.676,0,0,0,266.448,106.713Z" transform="translate(0 0)"/>
    </g>
    <g>
      <path class="cls-1" d="M157.073,165.113l6.767-16.1a1.531,1.531,0,0,1,2.016-.8,1.49,1.49,0,0,1,.774,1.961L159.862,166.3a1.531,1.531,0,0,1-1.408.912,1.3,1.3,0,0,1-.553-0.111A1.491,1.491,0,0,1,157.073,165.113Z" transform="translate(0 0)"/>
      <path class="cls-1" d="M172.012,165.693V149.4a1.5,1.5,0,0,1,1.519-1.52,1.522,1.522,0,0,1,1.546,1.52v6.629h7.153V149.4a1.5,1.5,0,0,1,1.52-1.52,1.522,1.522,0,0,1,1.547,1.52v16.295a1.522,1.522,0,0,1-1.547,1.519,1.5,1.5,0,0,1-1.52-1.519v-6.629h-7.153v6.629a1.521,1.521,0,0,1-1.546,1.519A1.5,1.5,0,0,1,172.012,165.693Z" transform="translate(0 0)"/>
      <path class="cls-1" d="M191.59,165.693V149.4a1.516,1.516,0,0,1,1.52-1.52h3.922a5.248,5.248,0,0,1,4.2,8.4,5.915,5.915,0,0,1-3.12,10.937H193.22a0.027,0.027,0,0,1-.027-0.027,0.273,0.273,0,0,0-.083.027A1.533,1.533,0,0,1,191.59,165.693Zm3.065-10.33h2.376a2.216,2.216,0,0,0,2.182-2.236,2.169,2.169,0,0,0-2.182-2.182h-2.376v4.418Zm0,8.783h3.453a2.858,2.858,0,0,0,0-5.717h-3.453v5.717Z" transform="translate(0 0)"/>
      <path class="cls-1" d="M207.991,165.693V149.4a1.516,1.516,0,0,1,1.519-1.52h9.031a1.533,1.533,0,0,1,0,3.066h-7.485V156h6.436a1.532,1.532,0,0,1,0,3.064h-6.436v6.629a1.539,1.539,0,0,1-1.546,1.519A1.516,1.516,0,0,1,207.991,165.693Z" transform="translate(0 0)"/>
      <g>
        <path class="cls-1" d="M49.046,165.707V149.369a1.5,1.5,0,0,1,1.523-1.521h9.056a1.537,1.537,0,0,1,1.521,1.521,1.56,1.56,0,0,1-1.521,1.551h-7.5v5.068h6.451a1.536,1.536,0,0,1,0,3.072H52.12v5.094h7.5a1.537,1.537,0,0,1,0,3.074H50.654c-0.056,0-.056-0.027-0.056-0.027l-0.029.027A1.518,1.518,0,0,1,49.046,165.707Z" transform="translate(0 0)"/>
        <path class="cls-1" d="M85.918,165.707V149.369a1.519,1.519,0,0,1,1.525-1.521H96.5a1.536,1.536,0,0,1,0,3.072h-7.5v5.068h6.449a1.536,1.536,0,0,1,0,3.072H88.994v6.646a1.542,1.542,0,0,1-1.551,1.521A1.519,1.519,0,0,1,85.918,165.707Z" transform="translate(0 0)"/>
        <path class="cls-1" d="M109.965,167.228a7.986,7.986,0,0,1-8-8v-9.859a1.5,1.5,0,0,1,1.523-1.521,1.543,1.543,0,0,1,1.551,1.521v9.859a4.928,4.928,0,0,0,9.856,0v-9.859a1.525,1.525,0,0,1,1.55-1.521,1.5,1.5,0,0,1,1.525,1.521v9.859A8.006,8.006,0,0,1,109.965,167.228Z" transform="translate(0 0)"/>
        <path class="cls-1" d="M153.705,150.92h-4.4v14.787a1.5,1.5,0,0,1-1.522,1.521,1.519,1.519,0,0,1-1.524-1.521V150.92h-4.373a1.541,1.541,0,0,1-1.524-1.551,1.5,1.5,0,0,1,1.524-1.521h11.823a1.519,1.519,0,0,1,1.521,1.521A1.56,1.56,0,0,1,153.705,150.92Z" transform="translate(0 0)"/>
        <path class="cls-1" d="M79.625,162.478a5.249,5.249,0,0,0-.916-3,4.352,4.352,0,0,0-.972-1.031A5.878,5.878,0,0,0,79.9,153.9a5.938,5.938,0,0,0-5.944-5.971H67.368a1.5,1.5,0,0,0-1.528,1.527v16.383a1.524,1.524,0,0,0,1.528,1.527,1.548,1.548,0,0,0,1.555-1.527V159.81h4.762a3.391,3.391,0,0,1,2.526,1.473,2.361,2.361,0,0,1,.331,1.2c0,0.316.03,3.359,0.03,3.359a1.525,1.525,0,0,0,1.527,1.527,1.547,1.547,0,0,0,1.556-1.527S79.625,162.5,79.625,162.478Zm-5.666-5.748H68.923v-5.721h5.036A2.86,2.86,0,1,1,73.959,156.73Z" transform="translate(0 0)"/>
        <path class="cls-1" d="M137.685,162.478a5.254,5.254,0,0,0-.913-3,4.336,4.336,0,0,0-.974-1.031,5.872,5.872,0,0,0,2.166-4.551,5.936,5.936,0,0,0-5.942-5.971h-6.592a1.5,1.5,0,0,0-1.527,1.527v16.383a1.523,1.523,0,0,0,1.527,1.527,1.547,1.547,0,0,0,1.554-1.527V159.81h4.763a3.382,3.382,0,0,1,2.525,1.473,2.359,2.359,0,0,1,.333,1.2c0,0.316.03,3.359,0.03,3.359a1.524,1.524,0,0,0,1.526,1.527,1.548,1.548,0,0,0,1.556-1.527S137.685,162.5,137.685,162.478Zm-5.663-5.748h-5.038v-5.721h5.038A2.86,2.86,0,1,1,132.022,156.73Z" transform="translate(0 0)"/>
      </g>
    </g>
  </g>
</svg>
