<svg id="Ebene_1" data-name="Ebene 1" xmlns="http://www.w3.org/2000/svg" viewBox="0 0 32 32">
  <defs>
    <style>
      .cls-1 {
        fill: #fd1417;
      }
    </style>
  </defs>
  <title>b8e1876e-f65c-4a7c-b112-41d8333f4a65</title>
  <g>
    <path class="cls-1" d="M15.858,13.563a0.409,0.409,0,0,0,.294-0.1,0.371,0.371,0,0,0,.11-0.283v-2.43a0.29,0.29,0,0,0-.111-0.236,0.448,0.448,0,0,0-.293-0.09,0.4,0.4,0,0,0-.271.09,0.3,0.3,0,0,0-.1.236v2.43a0.389,0.389,0,0,0,.1.283A0.356,0.356,0,0,0,15.858,13.563Z"/>
    <path class="cls-1" d="M17.87,18.051a0.8,0.8,0,0,0-.374.1,1.3,1.3,0,0,0-.347.281V16.66H16.331v5.49h0.818V21.84a1.032,1.032,0,0,0,.347.273,0.943,0.943,0,0,0,.423.088,0.669,0.669,0,0,0,.55-0.229,1,1,0,0,0,.19-0.658V19.067a1.21,1.21,0,0,0-.2-0.758A0.7,0.7,0,0,0,17.87,18.051ZM17.825,21.2a0.443,0.443,0,0,1-.069.279,0.263,0.263,0,0,1-.219.088,0.454,0.454,0,0,1-.2-0.045,0.682,0.682,0,0,1-.192-0.143V18.858a0.6,0.6,0,0,1,.167-0.125,0.419,0.419,0,0,1,.172-0.039,0.311,0.311,0,0,1,.252.105,0.482,0.482,0,0,1,.085.313V21.2Z"/>
    <polygon class="cls-1" points="10.256 17.459 11.199 17.459 11.199 22.15 12.111 22.15 12.111 17.459 13.056 17.459 13.056 16.66 10.256 16.66 10.256 17.459"/>
    <path class="cls-1" d="M14.913,21.176a1.149,1.149,0,0,1-.251.219,0.459,0.459,0,0,1-.226.084,0.2,0.2,0,0,1-.166-0.064,0.347,0.347,0,0,1-.05-0.207V18.1h-0.81v3.387a0.869,0.869,0,0,0,.142.541,0.5,0.5,0,0,0,.424.182,0.975,0.975,0,0,0,.47-0.129,1.743,1.743,0,0,0,.467-0.375V22.15h0.81V18.1h-0.81v3.076Z"/>
    <path class="cls-1" d="M16,0A16,16,0,1,0,32,16,16,16,0,0,0,16,0Zm1.93,9.762h0.91v3.42a0.369,0.369,0,0,0,.059.229,0.22,0.22,0,0,0,.186.072,0.529,0.529,0,0,0,.255-0.094,1.267,1.267,0,0,0,.28-0.24V9.762h0.912v4.461H19.619V13.729a1.912,1.912,0,0,1-.524.416,1.156,1.156,0,0,1-.528.144,0.571,0.571,0,0,1-.477-0.2,0.933,0.933,0,0,1-.16-0.6V9.762Zm-3.384,1.02a1.018,1.018,0,0,1,.367-0.824A1.5,1.5,0,0,1,15.9,9.65a1.345,1.345,0,0,1,.928.322,1.074,1.074,0,0,1,.359.834v2.3a1.162,1.162,0,0,1-.352.9,1.393,1.393,0,0,1-.977.326A1.343,1.343,0,0,1,14.9,14a1.183,1.183,0,0,1-.358-0.9V10.781ZM12.063,8.176l0.666,2.418h0.064L13.43,8.176h1.042l-1.194,3.539v2.508H12.252v-2.4L11.03,8.176h1.033ZM24,20.9a2.925,2.925,0,0,1-2.923,2.924H10.922A2.923,2.923,0,0,1,8,20.9v-2.35a2.923,2.923,0,0,1,2.922-2.924H21.077A2.925,2.925,0,0,1,24,18.553V20.9Z"/>
    <path class="cls-1" d="M20.313,18a1.222,1.222,0,0,0-.886.33,1.142,1.142,0,0,0-.344.859v1.818a1.291,1.291,0,0,0,.312.918,1.109,1.109,0,0,0,.856.334,1.207,1.207,0,0,0,.908-0.312,1.3,1.3,0,0,0,.306-0.939V20.8H20.634v0.184a0.882,0.882,0,0,1-.08.463,0.334,0.334,0,0,1-.282.106A0.3,0.3,0,0,1,20,21.43a0.9,0.9,0,0,1-.079-0.445V20.223h1.549V19.19a1.214,1.214,0,0,0-.3-0.883A1.134,1.134,0,0,0,20.313,18Zm0.32,1.592H19.918V19.184A0.594,0.594,0,0,1,20,18.82a0.321,0.321,0,0,1,.277-0.113,0.311,0.311,0,0,1,.27.113,0.6,0.6,0,0,1,.085.363v0.408Z"/>
  </g>
</svg>
