<svg id="Ebene_1" data-name="Ebene 1" xmlns="http://www.w3.org/2000/svg" viewBox="0 0 805.455 774.624">
  <defs>
    <style>
      .cls-1 {
        fill: #171716;
      }
    </style>
  </defs>
  <title>66b5d768-a743-4be7-a87d-f8b88c1603b9</title>
  <g>
    <path class="cls-1" d="M47.44,444.046c6.349-4.911,12.86-8.917,14.356-17.395,1-5.658.811-9.686-2.459-14.523-3.916-5.792-9.346-8.264-16.32-8.567-9.281-.408-11.352-0.448-18.614-0.465-7.094-.015-11.353.21-18.188,0.364-1.439.032-2.717,0.6-2.951,1.937-2.66,15.15-3.019,26.69-3.237,43.815-0.173,13.863.577,23.315,1.3,35.533a2.935,2.935,0,0,0,3.08,2.607H19.518a2.038,2.038,0,0,0,1.951-2.455,83.414,83.414,0,0,1-2.439-12.712c-0.412-3.4-1.054-5.354-.649-8.746a8.106,8.106,0,0,1,2.115-4.581c1.748-2.207,3.523-2.811,6.185-3.988a6.223,6.223,0,0,1,7.486,1.584,41.859,41.859,0,0,1,5.839,8.521,45.389,45.389,0,0,1,4.558,12.71c0.668,2.782.8,4.913,1.283,7.212,0.255,1.175.685,2.455,1.951,2.455H63.565c1.516,0,2.408-1.667,2.115-3.068-1.137-5.521-1.754-9.6-4.228-15.32-3.744-8.654-7.608-12.283-14.114-19.937a3.79,3.79,0,0,1-1.168-2.73A3.066,3.066,0,0,1,47.44,444.046Zm-3.023-18.717c-0.206,5.438-4.342,7.785-8.847,11.19-5.267,3.976-13.416,7.005-16.083,6-3.238-1.219-3.1-8.658-2.592-13.935,0.435-4.476,1.512-9.766,5.724-12a15.305,15.305,0,0,1,9.927-1.832c4.484,0.421,7.668,1.222,10.471,4.579C44.589,421.208,44.511,422.934,44.417,425.328Z" transform="translate(0 0)"/>
    <path class="cls-1" d="M146.282,483.819a84.626,84.626,0,0,0,2.266-15.159c0.37-9.757-.108-18.819-1.508-25.125-1.951-8.765-3.8-14.226-8.635-21.97-5.4-8.646-14.572-16.885-20.619-19.226a4.886,4.886,0,0,0-2.588-.1c-7.555,3.152-13.92,8.44-19.429,14.646-6.981,7.874-10.582,14.54-14.032,25.125-2.93,9-3.45,15.156-3.562,23.9A50.03,50.03,0,0,0,81.2,485.039a3.381,3.381,0,0,0,3.343,2.314h16.513a1.116,1.116,0,0,0,.866-1.6c-1.625-2.85-2.826-4.244-3.993-7.222-1.331-3.389-2.162-6.1-2.054-9.052,0.124-3.377.594-5.973,3.131-8.141,3.453-2.949,7.609-3.949,12.951-4.984,6.059-1.174,11.766-1.222,15.866.1a4.974,4.974,0,0,1,3.343,4.883,44.582,44.582,0,0,1-1.615,12,65.9,65.9,0,0,1-4.859,12.714c-0.378.82,0.673,1.3,1.621,1.3H142.5C144.581,487.352,145.864,485.733,146.282,483.819Zm-17.159-42.824a3.617,3.617,0,0,1-3.023,1.32,97.293,97.293,0,0,0-11.655.51,120.394,120.394,0,0,0-11.875,2.033,3.539,3.539,0,0,1-3.453-.812c-1.076-1.073-.926-2.363-0.432-3.764,1.189-3.356,2.262-7.2,4.967-11.187a28.676,28.676,0,0,1,8.416-8.749c1.67-1.082,2.843-1.92,4.857-1.731a5.8,5.8,0,0,1,4.209,2.34c3.347,3.864,7.227,10.173,8.523,16.379C129.954,438.745,130.083,439.874,129.123,440.995Z" transform="translate(0 0)"/>
    <path class="cls-1" d="M176.913,487.352h27.629a28.443,28.443,0,0,0,18.977-6.651,30.708,30.708,0,0,0,10.592-24.856c-0.7-12.945-2.464-21.7-8.929-32.665-4.29-7.275-11.72-14.34-18.1-16.809a30.382,30.382,0,0,0-10.759-2.554,152.7,152.7,0,0,0-19.412-.256,4.025,4.025,0,0,0-3.885,2.847c-3.459,10.594-3.937,24-4.432,39.466a200.686,200.686,0,0,0,1.4,35.4c0.232,1.875.5,3.175,1.947,4.478A6.557,6.557,0,0,0,176.913,487.352Zm9.795-64.833c1.148-4.067,3.424-7.293,7.7-7.988,5.065-.822,11.018,4.364,13.286,7.414a40.71,40.71,0,0,1,8.215,18.627c2.011,10.294,2.106,17.63-2.886,26.7-3,5.459-7.464,8.564-13.985,8.647a11.443,11.443,0,0,1-11.336-7.358c-2.6-5.977-2.576-14.2-2.743-23.377C184.8,436.323,185.656,426.234,186.708,422.519Z" transform="translate(0 0)"/>
    <path class="cls-1" d="M277.973,473.616c-7.947-.119-13.624-1.8-18.543-7.937-3.092-3.852-4.078-7.9-4.656-11.768-0.1-.668-1.162-0.772-1.769-0.417-2.834,1.637-4.393,5.831-5.03,10.231-0.965,6.717,1.615,11.115,5.913,16.365,6.443,7.871,14.148,8.69,24.382,9.261,10.325,0.572,21.871-3.8,26.743-9.261,4.616-5.176,7.541-10.612,7.325-15.9-0.3-7.424-2.325-12.676-8.312-18.008-4.371-3.893-9.255-6.4-16.62-8.747-8.309-2.644-12.93-2.811-17.375-7.933a8.211,8.211,0,0,1-.258-10.471c2.459-3.065,6.029-4.277,10.418-4.039,3.115,0.167,6.354,1.338,10.238,3.22,2.834,1.369,4.741,3.736,6.383,5a2.783,2.783,0,0,0,3.606-.033c1.856-1.717,2.674-2.151,3.928-3.913a15.862,15.862,0,0,0,2.455-5.131,3.826,3.826,0,0,0-1.206-3.642,36.245,36.245,0,0,0-12.465-6.419,48.683,48.683,0,0,0-21.806-1.264,24.644,24.644,0,0,0-16.4,10.231c-4.212,5.78-4.764,15.043-1.728,21.039,3.342,6.611,7.12,9.561,13.033,12.244,5.221,2.374,9.621,3.121,15.733,5.221,7.5,2.576,13.326,6.133,12.048,13.574C293.309,469.15,286.762,473.749,277.973,473.616Z" transform="translate(0 0)"/>
    <path class="cls-1" d="M378.584,425.23c3.277,0.034,5.712-.093,8.054-2.379a8.156,8.156,0,0,0,2.71-6.054c0.154-2.8-.811-4.882-2.778-7.234-3.169-3.786-6.654-4.861-11.655-6.41-5.754-1.777-12.666-1.328-18.132-.027C348.52,405.09,344.068,408,338,413.632c-5.453,5.065-10.281,14.436-11.978,25.023-0.8,4.978-1.486,18.9,2.481,27.566,5.083,11.072,10.867,18.411,23.1,21.97,4.54,1.321,16.117,1.128,20.109-.094,6.134-1.87,10.823-4.688,13.455-7.944,3.546-4.372,5.509-10.125,4.859-15.152a17.018,17.018,0,0,0-1.836-6.511c-0.37-.642-0.831-0.726-1.021-0.032-1.43,5.217-5.466,9.439-11.607,12.032-5.284,2.239-12.412,1.339-16.3,0-6.8-2.335-10.6-5.812-13.383-12.1a34.725,34.725,0,0,1-2.373-17.7c0.754-7.274,2.322-13.075,6.474-17.6,2.774-3.023,5-4.9,8.709-6.144,4.07-1.372,7.718-1.084,11.056-.7,2.541,0.291,4.375.944,6.03,2.981,1.067,1.31,1.851,2.729,1.731,3.976C377.4,424.313,377.662,425.216,378.584,425.23Z" transform="translate(0 0)"/>
    <path class="cls-1" d="M517.981,418.717c4.017-3.216,8.366-3.811,14.027-3.762,5.793,0.048,9.937,1.728,14.252,4.168a1.4,1.4,0,0,0,.865.408,1.248,1.248,0,0,0,.754-0.609,35.065,35.065,0,0,0,4.536-6.612,29.49,29.49,0,0,0,2.8-5.7,2.032,2.032,0,0,0-.215-2.035,2.351,2.351,0,0,0-2.164-.815c-9.926-.1-14.275-0.043-23.405-0.031-8.21.008-14.1-.027-21.06,0.07a4.267,4.267,0,0,0-2.862.772,4.175,4.175,0,0,0-1.439,2.222,87.814,87.814,0,0,0-4.2,16.69c-2.15,12.923-2.115,21.82-2.4,35.818-0.2,9.8.107,15.359,0.323,25.125a3.106,3.106,0,0,0,.973,2.238,3.471,3.471,0,0,0,2.809,1.217c9.444,0.216,13.188.105,21.615,0.122,12.155,0.022,17.991-.019,31.158-0.122,0.788,0,1.454.086,1.947-.531a2.024,2.024,0,0,0,0-2.109,67.826,67.826,0,0,0-3.241-7.122,59.383,59.383,0,0,0-4.568-8.448,1.418,1.418,0,0,0-1.435-.386,3.868,3.868,0,0,0-1.329.482c-2.5.966-3.669,2.075-6.15,3.09-3.57,1.462-5.371,2.39-9.51,2.708-4.2.319-7.36,0.19-10.574-1.818-4.583-2.867-6.3-8.5-5.6-14.583,0.924-7.922,6.573-11.714,11.217-12.474,3.316-.547,6.391.129,10.574,1.422a3.521,3.521,0,0,0,.864.406c0.638,0.032.9-.524,1.284-1.025,1.642-2.123,2.191-3.833,3.355-6.4,1.331-2.935,2.288-4.494,2.916-7.731a2.038,2.038,0,0,0-.646-1.831,2.622,2.622,0,0,0-2.055-.916,30.255,30.255,0,0,0-7.749.479c-2.683.418-3.633,0.931-6.766,1.644-3.031.688-4.514,1.616-8.075,2.123-0.792.113-1.589,0.549-2.451,0.129a2.106,2.106,0,0,1-1.184-1.22,13.6,13.6,0,0,1-.667-6.538C514.871,423.663,515.828,420.447,517.981,418.717Z" transform="translate(0 0)"/>
    <path class="cls-1" d="M432.818,405.356a1.866,1.866,0,0,0-1.267-1.286,75.328,75.328,0,0,0-8.631-.339c-2.675-.023-4.626,0-6.849.118a3.613,3.613,0,0,0-2.769,1.629,159.645,159.645,0,0,0-5.721,40.942,388.623,388.623,0,0,0,1.6,39.186,2.3,2.3,0,0,0,.8,1.745,2.055,2.055,0,0,0,1.332.516c6.43,0.427,10.1.016,17.007,0.121a1.23,1.23,0,0,0,1.2-.637,1.29,1.29,0,0,0,0-1.242,52.649,52.649,0,0,1-3.991-12.644c-0.931-5.588-1.309-10.094-.135-14.524,1.221-4.6,3.9-7.06,8.356-9.261,5.035-2.482,10.759-2.889,15.945-3.01,3.807-.084,7.222,1.138,9.022,3.486s1.348,4.43,1.228,7.316a54.893,54.893,0,0,1-2.025,12.354c-1.451,5.976-3.054,9.512-5.16,14.9a2.183,2.183,0,0,0-.137,2.133,1.925,1.925,0,0,0,1.73.876c3.753,0.249,5.5.135,9.022,0.13a42,42,0,0,0,6.493-.085c0.942-.124,1.628.119,2.4-0.431a3.3,3.3,0,0,0,1.2-2.372c2.561-12.251,2.72-20.685,2.266-33.946a169.725,169.725,0,0,0-7.428-44.049,4.5,4.5,0,0,0-3.828-3.222c-3.667.093-4.738-.083-7.772-0.031-2.73.042-4.087,0-7.006,0.241a1.042,1.042,0,0,0-.932,1c1.994,5.644,4.089,8.077,5.991,13.522a68.413,68.413,0,0,1,2.632,9.005c0.318,1.443.491,2.644-.362,3.926a3.014,3.014,0,0,1-2.4,1.719c-4,.126-6.99-0.323-11.423.126-4.9.5-7.722,0.752-12.377,2.508a3.267,3.267,0,0,1-3.429-.626c-1.125-.9-1.042-2.058-1.346-3.421-0.644-2.952.947-8.319,2.271-13.489S430.82,410.622,432.818,405.356Z" transform="translate(0 0)"/>
    <path class="cls-1" d="M588.146,412.639a38.647,38.647,0,0,0,1.394-6.543,1.84,1.84,0,0,0-.127-1.5,1.67,1.67,0,0,0-1.408-.53c-4.64-.339-4.873-0.282-7.987-0.339-2.526-.052-4.206,0-6.477,0a2.718,2.718,0,0,0-2.115.995,4.029,4.029,0,0,0-1.017,2.293,202.794,202.794,0,0,0-3.214,31.537c-0.452,16.27.732,25.221,4.889,33.386,5.888,11.571,15.705,17.5,28.818,17.324,11.148-.15,19.2-4.242,25.386-13.146,7.8-11.223,8.519-23.176,8.231-38.487a152.642,152.642,0,0,0-3.451-30.31,5.287,5.287,0,0,0-1.623-2.542,3.432,3.432,0,0,0-2.5-1.051H616.3c-0.849,0-1.581-.164-2.115.5a1.1,1.1,0,0,0-.391,1.164c0.8,5.23,2.537,9.228,3.237,15.055a162.178,162.178,0,0,1,1.59,21.6c0.029,7.394-1.478,16.548-4.832,22.3A13.313,13.313,0,0,1,601.282,471c-4.006-.173-5.746-1.074-9.393-4.172-3.528-3-5.526-8.56-6.385-14.011-1.063-6.739-.994-12.867-0.394-21.057A87.555,87.555,0,0,1,588.146,412.639Z" transform="translate(0 0)"/>
    <path class="cls-1" d="M765.827,418.049c4.012-3.218,8.364-3.811,14.032-3.764,5.789,0.047,9.927,1.728,14.243,4.169a1.392,1.392,0,0,0,.864.407,1.225,1.225,0,0,0,.755-0.61,34.831,34.831,0,0,0,4.535-6.612,29.124,29.124,0,0,0,2.8-5.7,2.018,2.018,0,0,0-.213-2.031,2.334,2.334,0,0,0-2.158-.814c-9.932-.1-14.279-0.047-23.414-0.036-8.205.009-14.105-.024-21.054,0.071a4.3,4.3,0,0,0-2.867.772,4.242,4.242,0,0,0-1.439,2.221,87.941,87.941,0,0,0-4.2,16.689c-2.153,12.926-2.112,21.82-2.4,35.822-0.193,9.795.107,15.36,0.326,25.123a3.09,3.09,0,0,0,.965,2.237,3.51,3.51,0,0,0,2.809,1.222c9.449,0.215,13.192.105,21.627,0.118,12.147,0.023,17.982-.018,31.156-0.118,0.788-.01,1.455.08,1.941-0.535a2.011,2.011,0,0,0,0-2.11,67.76,67.76,0,0,0-3.237-7.118,59.511,59.511,0,0,0-4.572-8.45,1.4,1.4,0,0,0-1.433-.386,3.844,3.844,0,0,0-1.331.482c-2.5.966-3.665,2.072-6.15,3.09-3.566,1.462-5.372,2.389-9.51,2.7-4.2.321-7.356,0.2-10.574-1.816-4.578-2.862-6.306-8.5-5.6-14.584,0.918-7.92,6.569-11.711,11.212-12.473,3.316-.547,6.393.129,10.578,1.423a3.456,3.456,0,0,0,.857.407c0.645,0.031.9-.523,1.287-1.022,1.646-2.126,2.193-3.835,3.354-6.4,1.338-2.935,2.285-4.494,2.914-7.73a2,2,0,0,0-.647-1.832,2.6,2.6,0,0,0-2.05-.915,30.306,30.306,0,0,0-7.747.477c-2.683.418-3.636,0.931-6.763,1.643-3.032.69-4.519,1.617-8.08,2.125-0.788.113-1.59,0.548-2.445,0.13a2.145,2.145,0,0,1-1.189-1.224,13.518,13.518,0,0,1-.667-6.537C762.708,422.994,763.665,419.776,765.827,418.049Z" transform="translate(0 0)"/>
    <path class="cls-1" d="M708.156,447.919a1.664,1.664,0,0,1-2.017-.589c-5.025-8.179-7.7-13.476-13.434-21.553-5.792-8.161-9.812-13.5-16.076-20a5.609,5.609,0,0,0-4.408-2.048H661.553c-1.83,0-3.57.923-3.772,2.642-1.512,12.664-1.977,24.745-2.142,40.6-0.15,14.873.129,23.314,1.133,38.114,0.074,1.067.506,2.267,1.637,2.267h14.064a1.451,1.451,0,0,0,1.511-1.557c-0.629-3.553-.9-6.2-1.383-10.172-1.052-8.611-1.892-13.478-2.013-22.148-0.123-8.977-.129-14.088,1.51-22.959a1.1,1.1,0,0,1,1.506-.95c3.4,2.608,6.643,7.03,10.175,12.074,5.452,7.809,7.352,13,11.064,21.773,3.485,8.24,4.761,13.262,7.529,21.673,0.188,0.591.754,2.267,1.882,2.267h13.692c1.381,0,1.891-1.026,2.39-2.149a15.33,15.33,0,0,0,1.258-4.265c1.509-8.99,1.771-14.916,2.138-24.5a218.111,218.111,0,0,0-.76-31.14c-0.59-6.989-1.506-10.53-2.135-17.863-0.187-2.186-1.572-4.146-3.9-4.266-4.652-.237-5.784-0.119-10.8-0.119-1.071,0-1.36,1.381-1.127,2.372,1.633,7.092,3.168,12.3,4.021,20.351a128.353,128.353,0,0,1,.38,20.248A1.91,1.91,0,0,1,708.156,447.919Z" transform="translate(0 0)"/>
  </g>
  <path class="cls-1" d="M401.208,193.388a1.461,1.461,0,0,1,.285.028l0.007-.025c-0.077,0-.157,0-0.237,0h-0.055Z" transform="translate(0 0)"/>
  <path class="cls-1" d="M401.5,193.391c-0.077,0-.157,0-0.237,0h-0.055a1.461,1.461,0,0,1,.285.028Z" transform="translate(0 0)"/>
  <path class="cls-1" d="M39.678,522.38c0-9.75-10.948-11.407-18.247-11.407H1.645v44.482H21.431c7.138,0,19.95-1.657,19.95-12.873,0-5.481-5.271-9.559-12.975-10.132v-0.128C35.136,531.366,39.678,527.67,39.678,522.38ZM13,517.982h4.377c5.19,0,10.949.384,10.949,5.544,0,4.59-5.92,5.417-10.705,5.417H13V517.982Zm17.029,24.28c0,5.163-6.406,6.183-11.679,6.183H13V535.571h5.351C24.026,535.571,30.028,536.463,30.028,542.263Z" transform="translate(0 0)"/>
  <rect class="cls-1" x="60.43" y="510.972" width="11.353" height="44.482"/>
  <polygon class="cls-1" points="94.161 510.972 94.161 555.455 105.514 555.455 105.514 534.808 105.677 534.808 126.032 555.455 140.871 555.455 116.624 531.938 139.897 510.972 125.95 510.972 105.514 530.091 105.514 510.972 94.161 510.972"/>
  <polygon class="cls-1" points="191.873 517.982 191.873 510.972 158.462 510.972 158.462 555.455 192.034 555.455 192.034 548.445 169.814 548.445 169.814 535.956 190.006 535.956 190.006 528.943 169.814 528.943 169.814 517.982 191.873 517.982"/>
  <path class="cls-1" d="M244.816,543.282c0,8.352,9,12.937,20.193,12.937,5.595,0,11.433-1.529,15.406-4.716l3.812,3.952h13.948l-10.136-8.921a22.29,22.29,0,0,0,7.218-15.233h-9.894c-0.163,3.442-.812,7.2-3.568,9.687l-10.38-8.921c6.162-2.8,10.947-5.672,10.947-11.791,0-7.2-8.353-10.067-16.3-10.067s-17.191,3.375-17.191,10.132c0,5.1,3.485,7.457,7.867,10.706C247.736,534.042,244.816,537.929,244.816,543.282Zm21.411-26.828c3.242,0,6.242,1.466,6.242,4.589,0,2.612-4.542,5.288-7.38,6.436-2.188-1.72-5.353-3.823-5.353-6.31C259.737,517.92,262.981,516.454,266.227,516.454Zm-3.652,19.436,12.57,11.025c-2.515,1.911-6.08,2.677-9.893,2.677-5.271,0-9.57-2.677-9.57-6.566C255.682,539.523,258.845,537.42,262.575,535.89Z" transform="translate(0 0)"/>
  <path class="cls-1" d="M400.749,533.086c0-13.446-9.975-22.877-27.734-22.877-18,0-27.733,9.24-27.733,22.877s9.568,23.133,27.733,23.133C390.935,556.219,400.749,546.534,400.749,533.086Zm-43.628,0c0-7.837,4.621-15.869,15.894-15.869s15.894,8.032,15.894,15.869c0,8.032-4.3,16.125-15.894,16.125S357.121,541.118,357.121,533.086Z" transform="translate(0 0)"/>
  <path class="cls-1" d="M420.933,510.972V539.4c0,11.919,8.591,16.823,23.11,16.823s23.11-4.9,23.11-16.823V510.972H455.8v25.684c0,7.583-3.084,12.555-11.758,12.555s-11.758-4.972-11.758-12.555V510.972H420.933Z" transform="translate(0 0)"/>
  <polygon class="cls-1" points="511.745 555.455 511.745 517.982 527.967 517.982 527.967 510.972 484.177 510.972 484.177 517.982 500.396 517.982 500.396 555.455 511.745 555.455"/>
  <path class="cls-1" d="M593.566,533.214c0-17.651-15.33-22.241-32.683-22.241H545.4v44.482h15.487C578.236,555.455,593.566,550.866,593.566,533.214Zm-30.493,15.231H556.75V517.982h6.323c9.486,0,18.653,5.544,18.653,15.231S572.559,548.445,563.073,548.445Z" transform="translate(0 0)"/>
  <path class="cls-1" d="M666.866,533.086c0-13.446-9.975-22.877-27.736-22.877-18,0-27.731,9.24-27.731,22.877s9.567,23.133,27.731,23.133C657.051,556.219,666.866,546.534,666.866,533.086Zm-43.63,0c0-7.837,4.621-15.869,15.894-15.869s15.9,8.032,15.9,15.869c0,8.032-4.3,16.125-15.9,16.125S623.236,541.118,623.236,533.086Z" transform="translate(0 0)"/>
  <path class="cls-1" d="M740.168,533.086c0-13.446-9.974-22.877-27.736-22.877-18,0-27.734,9.24-27.734,22.877s9.57,23.133,27.734,23.133C730.352,556.219,740.168,546.534,740.168,533.086Zm-43.63,0c0-7.837,4.621-15.869,15.894-15.869s15.9,8.032,15.9,15.869c0,8.032-4.3,16.125-15.9,16.125S696.538,541.118,696.538,533.086Z" transform="translate(0 0)"/>
  <path class="cls-1" d="M798.708,523.016c0-12.363-14.514-12.044-26.682-12.044H759.782v44.482h11.353V536.975h3.651c4.78,0,6.242,1.272,7.865,4.587l6.808,13.892h12.654l-9.083-17.4c-1.136-1.974-2.919-4.4-6-4.59v-0.126C794.246,532.576,798.708,528.245,798.708,523.016Zm-23.843,6.948h-3.73V517.982h3.73c5.677,0,12,.445,12,5.8C786.867,529.327,780.464,529.965,774.865,529.965Z" transform="translate(0 0)"/>
  <path class="cls-1" d="M475.893,136.264c-1.163,2.134-2.072,3.815-2,4.8a1.14,1.14,0,0,0,.09.405c0.534,1.179,1.39,1.271,2.477,1.864l8.618,4.495c1.118,0.528,1.808,1.015,3.079.755,0.974-.2,1.907-2.552,3.237-4.877l-0.011-.006c0-.008.007-0.017,0.011-0.023Z" transform="translate(0 0)"/>
  <path class="cls-1" d="M270.208,128.623c7.307,5.1,13.651,6.835,22.65,8.595,11.728,2.3,17.921,3.7,29.551,4.144,4.44,0.171,7.017.761,11.394,0,4.981-.864,7.432-2.7,12.1-4.661,8.638-3.633,12.989-6.83,21.6-10.54,7.225-3.116,11.2-5.334,18.826-7.251,6.47-1.623,10.281-1.849,16.923-2.437,11.547-1.026,18.13.234,29.72,0.183,1.889-.009,3.673-0.022,5.414-0.038,7.02,2.269,13.962,5.195,20.728,8.053,5.608,2.368,10.829,4.572,15.64,6.194-0.052.222-.112,0.474-0.207,0.791a3.622,3.622,0,0,0,1.8,4.5c4.538,1.881,14.342,5.8,15.716,8.078,2.819,4.672,3.523,7.587,1.938,12.476-0.831,2.577-21.209,59.666-38.1,105.311a3.6,3.6,0,0,0-.229,2.81c2.115,5.045,9.712,9.446,17.639,11.668,7.578,2.131,14.708,2.879,20.3.274,1.205-.564,1.567-2.006,2.007-3.1,16.035-39.884,41.181-102.983,41.378-102.993,0.684-1.374,1.765-3.884,2.933-6.668,1.384-3.293,6.253-7.83,11.456-9.048a135.087,135.087,0,0,1,14.816-2.717,9.928,9.928,0,0,0,7.955-6.207c1.956-5.463,3.081-8.122,4.339-12.232,12.821-.085,26.466-0.285,42.574-0.7,6.517-.164,11.091-2.124,15.29-6.551l2.187-2.293c6.835-7.118,12.236-12.741,12.236-23.57h-0.935c0.477-.255.971-0.519,1.5-0.8a104,104,0,0,0,16.025-10.441c7.076-5.337,10.523-9.031,16.965-15.118,7.374-6.971,10.983-11.468,18.31-18.494,5.232-5.016,8.231-6.871,13.644-12.612,2.144-2.271,3.476-3.732,4.329-6.734a61.99,61.99,0,0,0,2.66-13.844,46.975,46.975,0,0,0,.25-9.128,8.449,8.449,0,0,0-2.394-5.877c-2.45-2.686-7.074-4.372-12.095-5.881C703.274,0.038,699.7-.2,693.686.119c-8.476.445-13.158,3.274-20.928,5.977-16.082,5.6-25.024,9.139-41.084,14.8-14.266,5.026-22.182,8.249-36.648,12.658-16.711,5.094-26.367,7.2-43.367,11.237-17.1,4.061-26.812,6.068-44.052,9.5-8.127,1.624-12.686,2.719-20.872,4-9.33,1.464-14.652,1.9-24.052,2.83-14.784,1.467-23.177,1.709-38,2.672-17.173,1.117-26.894,1.269-44.051,2.59-17.006,1.309-26.746,1.144-43.537,4.143-13.528,2.417-21.626,2.939-34.21,8.469a84.349,84.349,0,0,0-17.793,10.023c-6.558,4.705-9.519,6.916-15.383,13.847-3.24,3.828-3.172,3.685-4.03,6.8-1.32,4.786-.814,9.126,1.1,14.418A8.307,8.307,0,0,0,270.208,128.623Zm211.141-13c22.5-.539,35.214-0.5,57.7-1.553,21.462-1.009,33.556-1.889,54.974-3.64,12.925-1.059,20.328-.849,33.116-3.022,4.761-.812,7.929-1.023,11.991-2.177-1.042,3.411-3.557,6.219-8.542,11.407l-2.238,2.342c-2.181,2.3-3.945,3.025-7.567,3.118-36.73.933-60.721,0.79-91.1,0.609-12.4-.076-25.842-0.156-41.627-0.172-4.987,0-12.7-3.007-21.112-6.528C471.336,115.879,476.006,115.747,481.348,115.619Z" transform="translate(0 0)"/>
  <path class="cls-1" d="M549.721,161.1c1.158,0.579,1.881.111,3.1-.111L564,158.777c1.2-.293,2.046-0.351,2.87-1.351a2.471,2.471,0,0,0,.346-1.451,10.077,10.077,0,0,0-.562-3.252l-18.681,4.15a0.228,0.228,0,0,0,0,.028h0C548.084,158.452,548.834,160.659,549.721,161.1Z" transform="translate(0 0)"/>
  <path class="cls-1" d="M389.694,289.523a2.734,2.734,0,0,0,.829.052c-0.13-.677.022-1.5-0.132-2.059-0.077-.278-0.529-0.231-0.529-0.582a3.5,3.5,0,0,0-.052-1.57,9.275,9.275,0,0,0-1.293-.96,4.491,4.491,0,0,0-.2-0.81,2.087,2.087,0,0,0-1.084.039,11.067,11.067,0,0,0-3.514.66,4.214,4.214,0,0,1,0,1.761c-0.329-.082-0.547-0.165-0.878-0.221a8.264,8.264,0,0,1-.409,1.716,1.552,1.552,0,0,1-.533,1.07,2.106,2.106,0,0,1-.594-0.144c-1.619.08-2.551,0.054-4.17,0v2.639c0.125,0.124.041,0.632,0.177,0.735,0.209,0.163.631-.08,0.7,0.147,0.134,0.442-.191,1.478-0.084,1.941,0.067,0.292.479,0.046,0.745,0.257v5.5h0.878a1.221,1.221,0,0,1,.381-0.744,1.945,1.945,0,0,1,.937-0.135c0.148,0.051.116,0.263,0.254,0.293a10.371,10.371,0,0,0,2.161-.075,1.391,1.391,0,0,1,1.536-.88,7.61,7.61,0,0,1,.439-1.539,2.45,2.45,0,0,0,1.412.364c0.232-.091.529-0.667,0.781-0.8a1.885,1.885,0,0,1,0-1.1,7.148,7.148,0,0,0,1.537.219c0-1.126.878-1.622,0.878-2.748,0-1.048-.436-1.6-0.436-2.642A1.852,1.852,0,0,1,389.694,289.523Z" transform="translate(0 0)"/>
  <path class="cls-1" d="M438.522,273.937a3.81,3.81,0,0,0,.447.217A3.81,3.81,0,0,1,438.522,273.937Z" transform="translate(0 0)"/>
  <path class="cls-1" d="M0.4,586.372v35.535H135.126c53.637,91.377,152.732,152.717,266.137,152.717s212.506-61.34,266.143-152.717h138.05V586.372H0.4Zm592.586,71.07a270.945,270.945,0,0,1-324.35,45.01,5.652,5.652,0,0,1,.558-0.945,2.029,2.029,0,0,0,.513-1.531h1.829a4.946,4.946,0,0,0,2.2-.066c0.906-.408.438-1.7,1.1-2.42,0.44-.471,1.2-0.574,1.6-0.973a2.216,2.216,0,0,0,.379-1.561,2.672,2.672,0,0,0-1.154-1.865c-0.386-.389-0.613-0.869-1.04-1.324-0.575-.6-1.392-0.785-1.857-1.268a16.168,16.168,0,0,0-2.479-2.328c0.275-.41.7-0.85,0.912-1.26l5.033,0.111a0.891,0.891,0,0,0,.912.691c1.757,0,2.932-.234,4.688-0.234a4.919,4.919,0,0,1,.456,1.031l2.285,0.117a1.214,1.214,0,0,1,.453-0.811,13.038,13.038,0,0,1,1.226-.449c0.369-.2.049-0.621,0.306-0.881a2.961,2.961,0,0,1,1.673-.44c0.326-1.541,1.411-1.2,2.976-1.2a3.812,3.812,0,0,1,1.412.539c0.6,0.3.978,0.025,1.559,0.375,1.716,1.033,2.5,1.49,4.343,1.49,1.264,0,1.821-1.826,2.287-2.979,0.714-1.762,1.881-1.859,2.346-3.728,0.275-1.1,1.511-1.158,1.976-2.2,0.386-.85-0.026-1.787.659-2.422,0.878-.824,2.276-1.328,1.976-2.529-0.783-3.1-5.011-5.851-4.61-8.908a28.94,28.94,0,0,0,.22-4.4c1.317-.965,1.507-1.486,3.15-1.486,1.317,0,2.777-.055,4.092-0.055a4.543,4.543,0,0,0,.223-0.666c0-.721-0.246-0.443-0.069-1.027a11.575,11.575,0,0,1,2.187-4.283c1.055-1.227,2.583-2.219,3.586-3.488a20.812,20.812,0,0,1,2.484-2.815,8.462,8.462,0,0,0,1.906-1.584c0.336-.539.375-1.156,0.649-1.619a5.176,5.176,0,0,1,2.2-1.9v-0.881c-0.9-.193-0.753-0.906-1.141-1.734a18.168,18.168,0,0,1-1.05-4.207,1.542,1.542,0,0,0,.594-0.721,8.869,8.869,0,0,0-3.659-.8c-1.972,0-2.643.422-4.617,0.422-0.721,0-1.5.285-1.861-.254-0.3-.449-0.215-1.68-0.551-2.162-0.361-.514-0.844-0.031-1.19-0.437a9.792,9.792,0,0,1-1.952-3.76l-3.659-.111c-0.465.938-1.485,0.787-2.527,0.787a6.168,6.168,0,0,1-2.126-.453,20.618,20.618,0,0,1-3-.906c-0.592-.277-1.99.068-2.531,0.008s-0.213-.535-0.568-1.07h-5.05c-0.632,0-1.052-.086-1.683-0.086-1.537,0-2.281-.635-3.543-1.49a19.545,19.545,0,0,0-2.484-1.393H451.064v0c-0.288.264-1.166,0.475-1.458,0.789a5.939,5.939,0,0,0-1.435,1.851,9.145,9.145,0,0,0-.18,2.326c0,1.873-.37,3.543,1.084,4.676,0.6,0.465,1.374-.283,2.114-0.445,0.2,0.457-.414.988-0.074,1.213a4.744,4.744,0,0,0,1.541.119c0.586,0.082,1.426,1.162,1.994,1.352,0.422,0.131.6-.654,0.929-0.488,0.225,0.113-.076.9,0.108,1.029,0.8,0.551,1.149,1.1,2.38.84,0,2.258.827,1.943,1.594,4.063,0.15,0.422.473,0.5,0.68,0.957,0.5,1.123.272,1.687,1.028,2.754,1.159,1.635,3.311,4.07,5.016,4.07l-0.146,2.465a1.6,1.6,0,0,1,.607.215c-0.082,2.918-.4,4.406-0.289,7.324,0.026,1.32.215,2.611,1.313,3.348a21.489,21.489,0,0,1-5.05,2.863c-0.714.25-1.343-.2-1.971,0.223-0.69.463-.474,1.685-0.612,2.514a7.775,7.775,0,0,0-.508,1.734l-0.211,2.752a21.586,21.586,0,0,1-.8,5.469,9.785,9.785,0,0,1-.4,2.2c-0.361.57-1.232,0.553-1.843,0.838-0.649.3-1.059,0.879-1.881,0.879v1.74c1.05,0.225,1.823,1.273,2.5,2.041,0.736,0.842,1.331,1.416,1.331,1.943,0,0.322,1.114,1.375,1.993,2.8,0.353,0.574.422,1.445,0.74,1.984,0.267,0.449.637,0.014,0.787,0.488a4.682,4.682,0,0,1-.052,1.346c1.287,0.277,1.18,1.352,2.166,2.176,0.852,0.717,2.169,1.045,2.169,2.176,0,0.957-.443,1.053-0.663,1.807-0.172.578-.137,1.408-0.3,2.047-0.1.379-.431,0.393-0.543,0.768a16.112,16.112,0,0,0-.516,3.885c0,2.479,3.754,2.148,4.222,4.57a6.942,6.942,0,0,1,1.848.049,4.319,4.319,0,0,0-.052.965,8.188,8.188,0,0,0-.388.732,3.643,3.643,0,0,0,.706,1.029c0.59,1.035.413,2.684,0.413,4.039,0,1.617.065,2.459,0.147,4.088l5.136,0.143c0.9-1.008,2.3-1.994,3.017-2.879,0.443-.549.224-1.012,0.681-1.545a12.181,12.181,0,0,0,1.372-.981,10.418,10.418,0,0,0,.818-1.631l6.14,0.7a8.914,8.914,0,0,1,1.729-2.348c0.556-.432,1.43-0.549,2.007-1,0.516-.406-0.13-0.586.275-0.971a23.049,23.049,0,0,1,3.064-2.334c0.293-.2.154-0.529,0.443-0.717s0.994-.211,1.266-0.379c0.172-.109-0.163-0.285,0-0.393,0.59-.385,1.314-0.389,1.9-0.713,0.731-.41,1.226-0.7,1.984-1.045a5.616,5.616,0,0,1,2.389-.568c0.151-.766.616-0.613,1.426-0.818a7.8,7.8,0,0,0,1.731-.865c0.1-.061-0.025-0.338.063-0.4a11.021,11.021,0,0,0,1.83-1.576,16.215,16.215,0,0,1,1.382-1.418,4.514,4.514,0,0,1,.9-1c0.306-.168.371,0.186,0.637,0.029a12.772,12.772,0,0,0,2.652-2.449,100.319,100.319,0,0,1,10.977-10.346c0.633-.518.263-0.867,0.947-1.334,1.455-1.018,3.823,1.164,4.977-.2a34.951,34.951,0,0,1,3.951-4.4,49.33,49.33,0,0,0,4.022-3.658c0.61-.652,1.123-1.494,1.906-2.285a8.416,8.416,0,0,1,.961-0.625c0.5-.42,1.3-1.269,1.76-1.713a4.074,4.074,0,0,0,1.67-3.385c0-.488-0.465-0.279-0.511-0.7a47.224,47.224,0,0,1-.151-5.129,3.468,3.468,0,0,1,.107-1.756c0.465-.727,1.58-1.145,2.312-1.873,1.945-1.959,3.41-3.463,5-4.977,0.422-.4.491-0.086,0.942-0.5,0.814-.746,2.049-2.248,3.057-3.107,0.938-.789,1.674-1.627,2.449-2.277a3.464,3.464,0,0,0,1.5-1.463c0.117-.309-0.207-0.459-0.09-0.744,0.15-.377.67-0.656,0.848-1,0.292-.568.426-0.889,0.731-1.414a19.9,19.9,0,0,1,1.081-2.479c0.275-.375.857-0.389,1.162-0.742,0.551-.66.138-1.4,0.44-2.2a7.613,7.613,0,0,1,.709-0.881c0.565-1.189,1.009-2.562,1.706-3.961,0.3-.6,1.1-0.358,1.536-0.881,0.53-.625.422-1.644,0.629-2.295,0.154-.5.688-0.6,0.688-1.227,0-.414-0.71-0.242-0.835-0.564a8.174,8.174,0,0,1,.177-2.072,4.5,4.5,0,0,1-1.029-.022,7.256,7.256,0,0,0,.37-2.18c-0.357-.086-0.947.246-0.947-0.137a3.253,3.253,0,0,0-.145-0.92h56A275.062,275.062,0,0,1,592.989,657.442Z" transform="translate(0 0)"/>
  <g>
    <path class="cls-1" d="M393.278,302.76c-0.327.434-.6,0.95-0.938,1.445-0.123.18-.482-0.1-0.629,0.069a6.153,6.153,0,0,0-.2,1,0.527,0.527,0,0,1-.329.14V309.6a2.625,2.625,0,0,0,.54-0.111,12.235,12.235,0,0,1,.749-0.979,11.008,11.008,0,0,1,1.069-.325c0.284-.147.106-0.292,0.386-0.438s0.953-.075,1.283-0.231c0.422-.2.2-0.891,0.6-1.144,0.705-.442,2.032-0.482,2.833-0.954a2.992,2.992,0,0,0,.767-0.953c0.315-.379,1.188-0.132,1.606-0.412,0.383-.256.306-1.055,0.811-1.055a2.18,2.18,0,0,1,.523.5c0.307,0.088.762-.176,1.121-0.063a3.2,3.2,0,0,1,.219-0.879h4.17c0.413-.854,1.482-0.55,2.415-0.662a6.352,6.352,0,0,0,1.472-.082,1.87,1.87,0,0,0,.293-0.378,3.372,3.372,0,0,1,1.309-.418c0.164-2.833.878-4.429,0.878-7.261-0.327.084-.548,0.165-0.878,0.219a1.956,1.956,0,0,0-.512-1.541,2.543,2.543,0,0,0-1.684,0,8.548,8.548,0,0,1-.594-0.715c-0.239-.726-0.295-1.7-1.051-1.7a4.875,4.875,0,0,1-.882.143c-0.4-.092-0.138-0.381-0.463-0.624a13.831,13.831,0,0,1-1.685-1.247,1.886,1.886,0,0,1-.372-1.573,1.656,1.656,0,0,1-.769-0.185c-0.524-.434-0.215-1.718-0.444-2.519-0.1-.354-0.647-0.156-0.9-0.386-0.324-.295-0.384-1-0.743-1.31-0.915-.815-2.142-1.16-2.848-1.926-0.168-.186.069-0.772-0.083-0.96-0.119-.144-0.537.071-0.666-0.057a2.328,2.328,0,0,1-.352-1.568,5.4,5.4,0,0,1,.32-0.595c0.235-2.262,1.29-3.669,2.314-5.895H400.4a4.922,4.922,0,0,1,0,.88,5.5,5.5,0,0,0-2.725-.02c-0.363.1-.4,0.563-0.833,0.563a6.188,6.188,0,0,1-.742-0.059,17.907,17.907,0,0,0,.459-2.088,6.271,6.271,0,0,0,.329-1.367,2.046,2.046,0,0,0-.568-1.506,1.689,1.689,0,0,0-.969-0.806,2.293,2.293,0,0,0-1.73.831c-0.168.358,0.386,0.781,0.194,1.15a1.089,1.089,0,0,1-.767.294,0.952,0.952,0,0,0-.552.807,1.889,1.889,0,0,1-.219.879,8.521,8.521,0,0,1-.874.049,1.666,1.666,0,0,0-.222-0.489,1.066,1.066,0,0,0-.885.265c-0.1.231,0.224,0.674,0.009,0.836-0.466.349-1.718-.155-2.179-0.06-0.344.07,0.107,0.776-.258,0.772-0.534,0-1.1-.052-1.735-0.052v1.319a2.354,2.354,0,0,1,1.316,2.2,13.237,13.237,0,0,1,1.81.6c0.478,0.125,1.046-.028,1.046.5a2.35,2.35,0,0,1-.444.929c-0.131.32-.072,0.682-0.217,1.053v1.1c0.629,0.13.813,1.016,1.2,1.427a0.988,0.988,0,0,0,.779.113,2.736,2.736,0,0,0,1.287-.247,2.624,2.624,0,0,1,1.343-.633c0.194,0,.245.221,0.438,0.221a9.347,9.347,0,0,0,.394,3.787c0.113,0.229.639-.007,0.773,0.214,0.108,0.181-.017.714,0.091,0.906a4.45,4.45,0,0,0,.955.686c0.374,0.379,1.228.636,1.628,1.006,0.262,0.242.022,0.765,0.3,1,0.2,0.168.47-.065,0.684,0.105l-0.027,3.685a20.114,20.114,0,0,1-3.064-.143,5.494,5.494,0,0,0-2.047-.2l0.308,1.939a3.57,3.57,0,0,1-.252,2.582,6.954,6.954,0,0,0-.639.747c-0.125.323,0.035,0.758-.094,0.982a3.908,3.908,0,0,1-.47.36,2.224,2.224,0,0,0-.082.94,1.344,1.344,0,0,0,.026.986c0.369,0.4,1.28.727,1.51,1.324A6.051,6.051,0,0,0,393.278,302.76Z" transform="translate(0 0)"/>
    <path class="cls-1" d="M389.862,286.933a3.5,3.5,0,0,0-.052-1.57,9.275,9.275,0,0,0-1.293-.96,4.491,4.491,0,0,0-.2-0.81,2.087,2.087,0,0,0-1.084.039,11.067,11.067,0,0,0-3.514.66,4.214,4.214,0,0,1,0,1.761c-0.329-.082-0.547-0.165-0.878-0.221a8.264,8.264,0,0,1-.409,1.716,1.552,1.552,0,0,1-.533,1.07,2.106,2.106,0,0,1-.594-0.144c-1.619.08-2.551,0.054-4.17,0v2.639c0.125,0.124.041,0.632,0.177,0.735,0.209,0.163.631-.08,0.7,0.147,0.134,0.442-.191,1.478-0.084,1.941,0.067,0.292.479,0.046,0.745,0.257v5.5h0.878a1.221,1.221,0,0,1,.381-0.744,1.945,1.945,0,0,1,.937-0.135c0.148,0.051.116,0.263,0.254,0.293a10.371,10.371,0,0,0,2.161-.075,1.391,1.391,0,0,1,1.536-.88,7.61,7.61,0,0,1,.439-1.539,2.45,2.45,0,0,0,1.412.364c0.232-.091.529-0.667,0.781-0.8a1.885,1.885,0,0,1,0-1.1,7.148,7.148,0,0,0,1.537.219c0-1.126.878-1.622,0.878-2.748,0-1.048-.436-1.6-0.436-2.642a1.852,1.852,0,0,1,.268-0.382,2.734,2.734,0,0,0,.829.052c-0.13-.677.022-1.5-0.132-2.059C390.314,287.237,389.862,287.284,389.862,286.933Z" transform="translate(0 0)"/>
    <path class="cls-1" d="M681.206,334.963A310.245,310.245,0,0,0,541.018,189.332l-0.239-.123c-4.091,10.176-9.827,24.5-15.458,38.569-6.746,16.851-13.99,34.946-19.968,49.815l-0.106.28a14.236,14.236,0,0,1-7.189,8.407,30.029,30.029,0,0,1-12.783,2.651,54.861,54.861,0,0,1-14.815-2.325,51.682,51.682,0,0,1-16.526-7.957,0.292,0.292,0,0,0-.191.086,2.269,2.269,0,0,1,.025.65c-0.25.2-1.2-.122-1.527,0.027-0.3.132,0.012,0.731-.268,0.922-0.768.521-1.644-.084-2.411,0.439a2.14,2.14,0,0,0-.319.71c-0.258.335-1.114-.064-1.45,0.211-0.378.315-.24,1.279-0.757,1.279a4.448,4.448,0,0,1-1.262-.585c-0.4-.1-0.822.082-1.223-0.053a4,4,0,0,1-.262-0.637c-0.267-.191-0.72.138-1.064-0.04a2.86,2.86,0,0,1-.469-0.886h-2.415a3.079,3.079,0,0,1-.22.88c-0.857-.127-1.92.046-2.587-0.033a8.628,8.628,0,0,0-1.692-.408c-0.684,0-1.066,1.081-1.752,1.081-0.192,0-.249-0.219-0.443-0.219-0.176-1.468-.154-2.7-0.371-4.006-0.081-.5.191-1.266-0.175-1.7a1.549,1.549,0,0,0-.986-0.123,1.658,1.658,0,0,1-.99-0.975,3.568,3.568,0,0,0-1.046-1.528,1.674,1.674,0,0,0-.6-0.674,2.42,2.42,0,0,1-.989-0.22,16.68,16.68,0,0,0-.878,5.172,5.307,5.307,0,0,0,.11,1.338c0.082,0.3.65,0.18,0.78,0.451,0.22,0.454.078,1.4,0.3,1.91a13.608,13.608,0,0,0,1.447,1.691,2.187,2.187,0,0,0-.737.685,3.906,3.906,0,0,0-.142.855,4.549,4.549,0,0,0-.878,0c0.026,0.771,0,1.211,0,1.98-0.6.054-.96,0.139-1.536,0.22a2.766,2.766,0,0,1-.121,1.545,1.013,1.013,0,0,1-.647.215c-0.52,0-.594-0.135-1.114-0.135-0.5,0-1.332-.286-1.826-0.286a1.232,1.232,0,0,0-.675.261,11.8,11.8,0,0,1-2.3,1.114,7.936,7.936,0,0,1,1.6.115c-0.081,2.475.25,3.745,0.035,6.193a7.251,7.251,0,0,1-.4,1.25c-0.246.8-.53,1.391-1.363,1.391a2.39,2.39,0,0,0-1.012,0c-0.648.356-.9,1.641-1.436,2.168-0.356.352-.938,0.081-1.5,0.027a1.813,1.813,0,0,1-.541,1.306,4.618,4.618,0,0,0-1.435.894c-0.74,1.154.253,2.289-.352,3.5a1.159,1.159,0,0,1-1.158.837,10.248,10.248,0,0,1-1.453.285,28.273,28.273,0,0,1-3.267-.275,1.181,1.181,0,0,0-.353-0.164,2.693,2.693,0,0,0-1.384.587,14.566,14.566,0,0,0-1.636.454,9.218,9.218,0,0,0-.628,1.368,1.628,1.628,0,0,1-1.072.231c-1.453,0-2.277-.439-3.732-0.439s-1.974,1.183-3.182,1.981v1.1c0.37,0.1.526,0.386,0.877,0.467a3.531,3.531,0,0,1,1.273.206c0.373,0.314.414,1,.924,1.31a5.706,5.706,0,0,0,1.18.219c0.229,0.086.168,0.511,0.387,0.6,0.3,0.114.836-.022,1.137,0.077,0.268,0.084-.073.719,0.138,0.871,0.386,0.281,1.262.156,1.548,0.654,0.181,0.315-.286.794-0.234,1.1,0.1,0.544.481,0.289,0.619,0.789a16.925,16.925,0,0,0,.273,2.294c0.191,0.44.877,0.385,0.877,0.879a1.924,1.924,0,0,1-.336.378,5.472,5.472,0,0,0,.117.943c1.1,0.218.659,1.731,0.659,2.859,0.847,0.171.851,0.925,1.012,1.709a17.982,17.982,0,0,0,.544,2.678c0.2,0.454.473,0.127,0.857,0.454a7.042,7.042,0,0,0-.568.808,5.134,5.134,0,0,1-1.4,2.544c-0.144.1-.272,0.307-0.432,0.45H226.255a0.3,0.3,0,0,1,.033-0.106c0.288-.352,1.459-0.666,1.818-1.054,0.74-.8.74-2.2,1.866-2.2,1.151,0,.87,1.531,2.022,1.531,0.943,0,1.465-.727,2.184-1.476a16.932,16.932,0,0,0,1.338-1.1,4.158,4.158,0,0,1,.711-1.16c0.715-.578,1.481-0.22,2.415-0.22a15.581,15.581,0,0,1,2.329.332,2.509,2.509,0,0,1,.961-0.112c0.26,0.123-.025.551,0.115,0.756a1.461,1.461,0,0,0,.873.123,4.126,4.126,0,0,0,2.131-.268c0.6-.459.216-1.094,0.434-1.98,0.268-1.107.5-2.486,0.716-3.762a9.669,9.669,0,0,0,.341-1.362,5.5,5.5,0,0,1,.439-2.971c0.419-.741.714-1.43,1.535-1.539,1.512-.221,2.175.295,3.711,0.35-0.055-.33.1-0.681,0.022-1.011,0.466-.027.741-0.219,1.208-0.219,0.273,0,.273.44,0.547,0.44,0.851,0,.824-1.128,1.538-1.542,0.36-.21.439,0.168,0.829,0.021a2.985,2.985,0,0,0,1.008-1.181,1.7,1.7,0,0,0,.579-0.6c0-.277-0.059-0.663.217-0.663,1.63,0,2.736.149,4.058,0.147a8.721,8.721,0,0,0,2.308-.173v4.867a6.148,6.148,0,0,1-1.266.541c-1.027.242-2.254,0.017-3.18,0.272a2.463,2.463,0,0,0-1.92,2.488v2.2h4.389c0.272-.565.754-0.294,1.289-0.524a1.721,1.721,0,0,0,.906-1.236c0-.275-0.219-0.385-0.219-0.659,0.275,0,.658.5,0.658,0.219,0-.741,1.1-0.412,1.756-0.659,0.768-.3.9-1.046,1.318-1.76h3.51a1.9,1.9,0,0,1,.22-0.66h2.632a5.218,5.218,0,0,1,.914.34c1.441,0.183,3.267.185,4.137-1a1.15,1.15,0,0,0-.13-0.619c0.043-.5.13-0.967,0.13-1.581h0.878l-0.284-1.346,0.284-1.295c-1.154-.054-1.731-0.634-2.854-0.881-0.118.3-.388,0.047-0.488,0.364-0.312.991-.467,2.5-1.487,2.5a5.492,5.492,0,0,1-3.071-.878,1.876,1.876,0,0,1,.437.878c0,0.192-.218.248-0.218,0.44-0.2-.275-0.381-0.248-0.545-0.5a5.367,5.367,0,0,1-.772-2.8c0-1.374.219-2.144,0.219-3.52-1.232-.549-0.959-1.98-1.314-3.3v-1.321a4.715,4.715,0,0,0,1.192.164c0.4-.133-0.162-0.454.175-0.7,0.533-.391,1.8.056,2.5-0.359,0.6-.353.658-1.074,1.13-1.531a2.282,2.282,0,0,1,1.36-.433v-2.641H272a3.227,3.227,0,0,1-.22-0.88h-1.975a1.149,1.149,0,0,1-.756,1.02,13.388,13.388,0,0,0-1.877.081c-0.633.22-.194,1.54-0.879,1.54s-1.071.22-1.756,0.22a2.33,2.33,0,0,1,0,.878,1.814,1.814,0,0,0-1.507.122c-0.714.386-.413,1.419-1.235,1.419a3.583,3.583,0,0,1-.771-0.219,1.6,1.6,0,0,1,0,.879,2,2,0,0,0-1.356-.048,2.714,2.714,0,0,1-1.166.71,6.141,6.141,0,0,1-.769-0.221,3.5,3.5,0,0,0-.657-1.76,4.3,4.3,0,0,0,3.289-3.3,3.484,3.484,0,0,0,2.994-1.368,4.263,4.263,0,0,0,1.4-2.154,13.809,13.809,0,0,0,1.537.221,11.456,11.456,0,0,0,0-1.321c1.042-.028,2.2-0.494,2.2-1.54,0-.192-0.219-0.248-0.219-0.44h9.216c0.194,0.447-.263.893,0.091,1.055a4.868,4.868,0,0,0,2.313-.122,20.5,20.5,0,0,1,2.426-.052h1.976c0.777,0,.818.785,1.351,1.236,0.672,0.563,1.758.9,1.938,1.844a7.515,7.515,0,0,1,1.756,0l-0.217.66h1.754c0.194-.578.275-0.935,0.439-1.541a1.929,1.929,0,0,0,1.516.185,1.861,1.861,0,0,0,1.119-1.284c0-.274-0.22-0.385-0.22-0.66,0.992-.1,1.868-0.1,2.66-0.263a3.069,3.069,0,0,1,.853-0.4c0.469,0,.215.795,0.533,1.018s1.2-.139,1.66-0.139v1.54c-0.445.192-.953,0.057-1.126,0.424-0.2.424-.058,1.365-0.409,1.777-0.4.455-.873,0.192-1.209,0.6a5.367,5.367,0,0,0-1.008,1.171,5.3,5.3,0,0,1-.15,1.239,6.174,6.174,0,0,1-.371.519c-0.236.3-1.129,0.248-1.409,0.537-0.392.4-.245,1.362-0.486,1.861a2.48,2.48,0,0,1-.415.017c-0.459.485-.433,1.473-0.786,1.971a2.382,2.382,0,0,1-2.065.671H286.27a2.412,2.412,0,0,1-.131.791c-0.143.275-.6,0.42-0.763,0.761a2.644,2.644,0,0,0,.013.978,3.955,3.955,0,0,0,.043,1.259c0.168,0.367.588,0.412,0.838,0.831,2.823-.138,4.229-0.115,7.055-0.115a1.485,1.485,0,0,1,1.393-.984,5.857,5.857,0,0,1,1.208.219,2.873,2.873,0,0,0-.069,1.07,14.006,14.006,0,0,1,1.387,2.011H293.73a2.83,2.83,0,0,1-2.2,1.98V318.4c0.163,0.139-.087.483,0.073,0.582,0.19,0.12.787-.011,1.023,0.079a2.5,2.5,0,0,1,1.12-1.025c0.379-.3.177-0.7,0.642-0.929a8.232,8.232,0,0,1,2.959-.469,4.978,4.978,0,0,1,1.764.344c0.387,0.141.984-.1,1.377,0.04a3.985,3.985,0,0,1,.467.706,2.466,2.466,0,0,0,1,.012,1.169,1.169,0,0,0,.613.086c0.259-.242.3-0.928,0.595-1.186,0.441-.408,1.1-0.393,1.474-0.752a1.583,1.583,0,0,0,.28-1.006c0-.489-0.431-0.441-0.611-0.808a4.4,4.4,0,0,1-.047-1.394c-0.366-.078-0.743.168-0.889-0.113a18.411,18.411,0,0,0-.429-1.868c-0.235-.362-0.6.1-0.817-0.2a4.73,4.73,0,0,1-.278-1.78c0-1.623.22-2.558,0.22-4.181a8.537,8.537,0,0,1-1.742-.088,14.992,14.992,0,0,1-1.391-.852,2.646,2.646,0,0,0-1.256-.161v-1.541a10.387,10.387,0,0,0,1.441-.713c0.465-.494.2-0.977,0.529-1.546,0.259-.442.713-0.276,1.022-0.748,0.251-.383-0.072-0.668.185-1.147,0.2-.375.383-0.048,0.71-0.458,0.172-.22.37-0.585,0.57-0.91,0.127-.209.31-0.071,0.435-0.265,0.243-.385.415-1.066,0.595-1.252a12.932,12.932,0,0,1,1.908-1.388,10.307,10.307,0,0,0,1.4-1.421,2.3,2.3,0,0,0,.865-1.592,9.3,9.3,0,0,0-.486-2.127,14.376,14.376,0,0,0-.327-1.894,4.275,4.275,0,0,0-.525-0.6,3.591,3.591,0,0,1-.2-1.322,3.144,3.144,0,0,1-.879-0.221v-2.86c0-.255.234-0.383,0.241-0.617a10.459,10.459,0,0,0-.03-1.207c-0.039-.442-0.508-0.186-0.617-0.625a15.583,15.583,0,0,0-.031-1.952c-0.1-.237-0.314.008-0.5-0.106a5.17,5.17,0,0,0-.367-0.426c-0.244-.135-0.744.021-1.041-0.144a2.116,2.116,0,0,1-.51-0.863,2.892,2.892,0,0,1-1.318.439,3.211,3.211,0,0,1-.878-0.22,6.855,6.855,0,0,0,.093-2.649,7.588,7.588,0,0,1-.531-1.971c0-.192.22-0.275,0.22-0.439h1.536a7.118,7.118,0,0,1,.22-1.322,13.463,13.463,0,0,0,1.535,0c-0.082-1.815.167-2.831,0-4.619a27.123,27.123,0,0,1-.437-2.971,8.3,8.3,0,0,1,.337-2.8c0.159-.385.521-0.1,0.726-0.438a14.115,14.115,0,0,0,.605-2.463,7.071,7.071,0,0,0,.744-1.889,6.56,6.56,0,0,1-1.809-.307,1.64,1.64,0,0,0-.715-0.355c-0.63,0-.6.855-0.987,1.321-0.363.439-1.173,0.343-1.513,0.679-0.465.46-.314,1.406-0.643,2-0.258.468-.984,0.563-1.355,1.065-0.549.743-.084,1.733-0.878,2.2a2.134,2.134,0,0,1-1.136-.069c-1.357.122-2.734-.231-4.352,0.069a12.068,12.068,0,0,0,2.2.439,8.461,8.461,0,0,1-3.182.662,2.05,2.05,0,0,1-.548-0.441c0.436-.274,1.1-0.33,1.1-0.88,0-1.513-1.1-2.228-1.1-3.74,0-.4.451-0.147,0.617-0.453a3.718,3.718,0,0,0,.041-1.748c0.411-.167.521-0.662,0.985-0.662a1.611,1.611,0,0,0,1.427-1.759c0-1.457-.219-2.282-0.219-3.741a1.559,1.559,0,0,0,1.252-.178,9.893,9.893,0,0,1,1.163-1.362c0.769-.467,1.976-0.494,1.976-1.431,0-.414-0.56-0.359-0.807-0.593-0.523-.5-1.031-1.082-1.608-1.717-0.525-.584-1-0.928-1.481-1.381-0.2-.186-0.158-0.818-0.494-0.818a2.477,2.477,0,0,1-.75.157,1.442,1.442,0,0,1-.787-1.258c0-.193.22-0.249,0.22-0.44h-3.952c-0.189,1.6-1.178,2.311-2.193,3.521-0.521.633,0.3,1.431,0,2.2-0.467,1.21-1.866,1.1-3.184,1.1a4.234,4.234,0,0,1-1.644-.659,0.6,0.6,0,0,1-.556.641,3.341,3.341,0,0,0-1.2-.2c-0.6.3-.3,1.211-0.879,1.539a5.514,5.514,0,0,1-1.286.275,2.352,2.352,0,0,0-.688.606v2.641A18.8,18.8,0,0,1,275.9,254c-0.088.4-.652-0.154-0.785,0.093a13.152,13.152,0,0,0,.181,1.6c-0.493.055-.822,0.138-1.315,0.221,0,0.687.028,1.072,0,1.761a1.208,1.208,0,0,0-.774.629c-0.254.211-.76,0.222-0.76,0.581,0,0.467.026,0.741,0,1.21-0.5.054-.827,0.137-1.317,0.219a4.273,4.273,0,0,1-.222,1.319h-0.657a7.38,7.38,0,0,1-1.684-.366c-0.3-.246-0.167-0.953-0.623-0.953a3.1,3.1,0,0,0-2.443,1.138,7.652,7.652,0,0,1-.3.843c-0.308.254-.914,0.07-1.18,0.31a2.433,2.433,0,0,0-.357,1.67c0,1.293.22,2.007,0.22,3.3-2.772,0-5.488-.991-7.022,1.32a2.5,2.5,0,0,1,1.534.661v4.842c-0.481.53-1.524,0.945-1.853,1.43-0.269.4,0.122,0.838,0.1,1.429-0.77-.055-0.99.881-1.757,0.881-1.266,0-1.894-.716-3.073-1.1-0.822-.274-1.728.056-2.2-0.661-0.715-1.072-.22-2.089-0.22-3.409a6.294,6.294,0,0,1,.181-2.646,7.381,7.381,0,0,1,1.576-1.425c0.383-.358.327-1.1,0.878-1.1a1.625,1.625,0,0,0,1.317-1.539,6.978,6.978,0,0,0,1.317.219c-0.06-.871.527-1.142,1.173-1.6a15.787,15.787,0,0,0,2.481-2.025,1.642,1.642,0,0,0,.734-1c0-.518-0.4-0.4-0.5-0.831a12.723,12.723,0,0,0-1.04-3.169c-0.163-.293-0.5-0.034-0.654-0.394-0.095-.213.1-1.113-0.006-1.328-0.141-.3-0.541.168-0.786-0.012a2.353,2.353,0,0,1-.31-1.309c0-.25.238-0.528,0.273-0.8a2.456,2.456,0,0,1,.147-1.123,2.343,2.343,0,0,1,.676-0.277v-3.079h-1.535a0.656,0.656,0,0,1-.551.439c-0.361,0-1.52-.289-1.9-0.346-0.627-.092-0.406-0.043-0.406-0.643,0-1.459.878-2.174,0.878-3.633a7.369,7.369,0,0,0,1.282-.112,1.773,1.773,0,0,0,.489-0.36,7.668,7.668,0,0,0,1.945-.651,2.934,2.934,0,0,0,1.11-2.286,5.536,5.536,0,0,1,0-1.651,4.481,4.481,0,0,0,.879,0,3.019,3.019,0,0,1,.01-0.941,2.14,2.14,0,0,0,.478-0.406,2.86,2.86,0,0,1,.331-1.461c0.655-.6,1.882-0.428,2.927-0.625a2.3,2.3,0,0,0,.741-0.518,3.723,3.723,0,0,1,1.218-.228c0.082-.441-0.025-1.1.439-1.1a7.491,7.491,0,0,0,2.234-.322c0.34-.107-0.191-0.352.12-0.5,0.487-.237,1.649,0,2.191-0.328,0.667-.4.437-1.346,0.908-2,0.427-.6,1.563-0.9,2.009-1.465,0.712-.908.022-2.348,1.172-2.348,1.211,0,2.009-.073,3.217-0.073,0.2-.418-0.1-0.468.285-0.587a12.357,12.357,0,0,1,2.568-.293,1.638,1.638,0,0,1,.541.414,6.357,6.357,0,0,0,2.094.027,1.8,1.8,0,0,0,1.08-.809,3.742,3.742,0,0,0,1.006-.637,12.661,12.661,0,0,1,.549-1.636,3.3,3.3,0,0,1,1.041-.56c1.081-.858,2.2-1.691,2.469-3.182a6.756,6.756,0,0,0,1.977.221c0,0.589-.268,1.14.066,1.531a5.009,5.009,0,0,0,1.468.669,3.646,3.646,0,0,0-.22,1.32h1.757a2.3,2.3,0,0,1,.091-0.493c0.262-.312.664,0.113,1.059-0.043,0.332-.131-0.116-0.566.245-0.789a23.464,23.464,0,0,1,2.337-.656c0.565-.249.061-0.452,0.522-0.672a9.708,9.708,0,0,1,3.228-.343c2.69,0,4.315.137,7,.137,0.125-.672-0.15-1.323.125-1.752a7.369,7.369,0,0,0,.969-0.489,5.636,5.636,0,0,0,.224-1.722c0.329,0.055.549,0.14,0.879,0.222V216.96a13.669,13.669,0,0,1-.879-2.861H308a23.345,23.345,0,0,0-2.07,1.35,3.407,3.407,0,0,0-1-.03c-0.293.173,0.03,0.776-.19,0.969a3.059,3.059,0,0,1-1.126-.088c-0.522,0-.8-0.191-1.317-0.218a18.941,18.941,0,0,0,.221-3.3c0.535-.37.9-1.009,1.342-1.364,0.053-.041.11-0.058,0.162-0.094q2.725-1.047,5.472-2.038c0.045,0.018.1,0.018,0.145,0.038a1.861,1.861,0,0,0,.78.6c1.618,0,1.756,1.955,3.072,2.861,0.645,0.443.91,1.114,1.49,1.534,0.361,0.265,1.153-.016,1.491.25a2.464,2.464,0,0,1,.2,1.386,6.682,6.682,0,0,1,.332.79,24.582,24.582,0,0,1-.219,2.862c-0.109.961-.053,1.87-0.877,2.419v4.841a11.251,11.251,0,0,1-4.39.879c-0.028.633,0.192,1.541-.438,1.541a1.91,1.91,0,0,0-1.128.855,10.118,10.118,0,0,1-1.5,1.516,3.332,3.332,0,0,1-1.541.048,2.258,2.258,0,0,1-1.1-.424,2.728,2.728,0,0,1-1.3-.931,8.94,8.94,0,0,1-.007-1.064,12.647,12.647,0,0,0-1.511.314c-0.213.055-.075,0.51-0.288,0.558a13.652,13.652,0,0,1-1.934-.212v0.88c-0.553.035-2-.3-2.434-0.194-0.252.058,0.525,0.493,0.238,0.634,0.606,0.77.879,1.761,1.867,1.761,0.465,0,.74-0.028,1.207,0,0,0.494.44,0.716,0.44,1.21a2.779,2.779,0,0,1-.606.972,1.074,1.074,0,0,1-.369.688,3.765,3.765,0,0,1-1.44-.01,3.71,3.71,0,0,1-.437,1.54,4.737,4.737,0,0,0-1.537-.219v1.1a5.313,5.313,0,0,0,.258,1.278,4.246,4.246,0,0,1,.67.289,5.678,5.678,0,0,1-.053,1.516c0.522,0.027,1.317-.3,1.317.22a0.435,0.435,0,0,0,.441.439c0.741,0,1.124-.439,1.864-0.439a6.7,6.7,0,0,1,2.084.439,4.253,4.253,0,0,0-.657,1.87c0,0.234-.394.688-0.189,0.789a6.038,6.038,0,0,1,1.067-.018c0.218,0.283-.269.676-0.174,0.957a9.743,9.743,0,0,1,.83,2.565c0.879,0,1.731-.056,2.2.659h1.316a17.022,17.022,0,0,1-.658-3.521,3.106,3.106,0,0,1-.878-0.219c0.413-1.567.824-2.7,2.2-3.519,1.124,1.567,1.029,2.975,2.017,4.654,0.988-.386,2.018-0.8,3.031-1.135a26.316,26.316,0,0,1-.658-3.851c0-.492.682,0.234,0.844-0.152,0.139-.332-0.257-0.755-0.158-1.217,0.084-.388.688,0,0.836-0.422a10.65,10.65,0,0,0,.012-2.718c0-.42-0.6.29-0.817,0.016a10.942,10.942,0,0,1-.058-1.777v-1.539a2.46,2.46,0,0,0,2.188-.817c0.347-.466.34-1.506,0.689-2.167a3.572,3.572,0,0,1,.636-0.316,4.742,4.742,0,0,1,.437,2.31c0,1.156-.218,1.815-0.218,2.971,0.6-.042.519,0.318,0.924,0.637a7.294,7.294,0,0,0,1.112.385c0.348,0.174.293,0.96,0.648,1.12a4.671,4.671,0,0,0,.936-0.382,3.258,3.258,0,0,0,.92.26,4.473,4.473,0,0,0,.275-1.039,1.868,1.868,0,0,1,1.55-.542c0.129-.642.938-0.73,1.36-1.121a2.232,2.232,0,0,0,.4-1.63,13.414,13.414,0,0,1,.009-2.739c0.136-.5.65-0.569,0.65-1.221,0-.526-0.551-0.354-0.708-0.747a7.917,7.917,0,0,1,.049-2,3.686,3.686,0,0,1-1.1,0c0.081-1.046.438-1.6,0.438-2.641,1.946,0,2.987-1.514,3.731-3.3a6.807,6.807,0,0,0,1.314.219c0.168-.933.224-1.483,0.438-2.419a13.887,13.887,0,0,1-1.351-.367,2.789,2.789,0,0,0-1.554-.823c-0.272,0-.584-0.287-0.858-0.287-0.191,0-.215-0.064-0.4-0.064-0.111-1.291.547-2.144,0-3.3-0.138-.33-0.853.368-0.853-0.016,0-.357.193-0.946,0.193-1.3a9.824,9.824,0,0,0,1.968-.06,8.673,8.673,0,0,1,2.419-.6c-0.546-2.063-.218-3.357-0.218-5.5a8.115,8.115,0,0,1-2.486-.484c-0.477-.266-0.46-0.834-1.135-0.834-1.181,0-1.181,1.456-2.084,2.2-0.577.467-1.344,0.249-1.757,0.879-0.329.5-.356,1.321-0.985,1.321a3.528,3.528,0,0,1-.771-0.221c0-.824-0.439-1.264-0.439-2.091a1.861,1.861,0,0,1,1.024-1.519A268.771,268.771,0,0,1,355.5,197.23a1.122,1.122,0,0,1-.228.483,7.476,7.476,0,0,1-1.359.754c-0.228.158-.457,0.315-0.687,0.459-0.2.123,0.114,0.7-.095,0.793a6.676,6.676,0,0,1-1.9-.143,4.575,4.575,0,0,1,0,.88,7.109,7.109,0,0,0-1.536-.219c-0.066.34-.087,1.01-0.405,1.052-0.349.044-1-.55-1.35-0.394-0.851.386-.467,1.513-1.095,2.2l-0.137,2.3a8.923,8.923,0,0,0,2.4-.015c1.051-.09,1.941-0.21,3.22-0.308,0.521-.028,1.317.523,1.317,0,0-.192.027-0.439,0.22-0.439s0.247,0.219.438,0.219a2.437,2.437,0,0,0-.219.88c0.392,0,.951.087,1.364,0.053a1.54,1.54,0,0,1,.788-0.078,3.113,3.113,0,0,1,.7,1.125,6,6,0,0,0-.633.494,5.652,5.652,0,0,0-.315.973c-0.138.262-.37,0.179-0.479,0.44s0.032,0.922-.058,1.2c-0.065.2-.655-0.234-0.736-0.048-0.314.7-.246,1.927-0.853,2.661h-8.093c0.3,0.881.9,2.421-.028,2.421a3.39,3.39,0,0,0-1.1.438v1.1a8.231,8.231,0,0,1,1.906.062c0.221,0.055.15,0.579,0.359,0.651,0.381,0.134.935-.022,1.318,0.1,0.264,0.08.231,0.628,0.484,0.72a10.989,10.989,0,0,0,3.394.23v1.541a5.572,5.572,0,0,0-.818.133,2.71,2.71,0,0,0-.344,1.31c-0.064.305-.633,0.339-0.7,0.65-0.207.988,0,2.2-.988,2.527v4.18a2.512,2.512,0,0,0-.926.3c-0.2.5,0.265,1.476,0.265,2.118-1.118,0-2.476.1-3.715,0.033a4.154,4.154,0,0,0-1.477.3,32.127,32.127,0,0,0-3.349.475c-0.8.256-.263,0.642-0.263,1.455V235.6c-0.2.167-.374,0.33-0.538,0.49-0.31.308-.917,0.258-1.169,0.547a8.774,8.774,0,0,0-.472,1.284,3.357,3.357,0,0,1-.887.117,6.679,6.679,0,0,1-.422.924c0.275,0.275.527,0.542,0.762,0.8,0.284,0.315.2,1.022,0.453,1.321s0.585-.042.865,0.221c0.21,0.2.137,0.94,0.357,1.187a23.771,23.771,0,0,0,2.393,1.749c-0.147.125-.283,0.3-0.418,0.424-0.09.082-.066,0.22-0.15,0.3-0.148.131-.574,0.2-0.717,0.319a7.329,7.329,0,0,0-1.031.644,3.2,3.2,0,0,1-.228.784,7.779,7.779,0,0,1-1.847.611v3.082a5.4,5.4,0,0,1,1.1.439v0.661a1.211,1.211,0,0,1-.439,0v1.978a2.521,2.521,0,0,1,1.1,0,8.908,8.908,0,0,0-.168,1.241,6.637,6.637,0,0,0-.267.842,5.284,5.284,0,0,0,.844.981,5.137,5.137,0,0,1,.688,1.778c0.043,0.245-.086,1.712-0.034,1.969,0.163,0.749.616,0.231,1.352,0.231,1.069,0,1.563-.879,2.633-0.879,0.325,0,.327.732,0.592,0.81a10.3,10.3,0,0,1,1.339.125c0.236,0.119-.109.611,0.107,0.775a9.973,9.973,0,0,0,1.223.212,1.915,1.915,0,0,1,.361.575,7.433,7.433,0,0,0,1.209.363,14.424,14.424,0,0,1,.514-1.688,2.047,2.047,0,0,1,.682-0.4c0.218-.236.03-0.747,0.256-1.052,0.295-.4,1.014-0.6,1.4-1.038,0.633-.715.11-1.54,0.438-2.42,0.275-.772,1.236-0.66,1.757-1.321,0.577-.743,0-1.568.44-2.421,0.318-.615,1.055-0.344,1.536-0.744a2.863,2.863,0,0,0,.525-1.3,4.893,4.893,0,0,0,.572-1.48c0-.275-0.219-0.384-0.219-0.66,0.555-.049,1.3.082,1.554-0.307a4.388,4.388,0,0,0,.527-1.815,3.6,3.6,0,0,1,.114-1.179c0.327-.66,1.315-0.276,1.752-0.88a6.084,6.084,0,0,0,.529-1.562,6.273,6.273,0,0,1,.79-0.857c1.472,0.083,2.732-.054,3.907.046,0.137,0.013-.184.436-0.053,0.462a15.96,15.96,0,0,0,2.291-.069,5.9,5.9,0,0,1-.268-1.584c0.03-.721.268-1.473,0.268-2.376a1.56,1.56,0,0,0,.791.092,3.047,3.047,0,0,0,.087-1.414,2.277,2.277,0,0,0,1.231.09,10.676,10.676,0,0,1,.524-0.969c0.47-.281.6,0.154,1.072,0.191a4.987,4.987,0,0,0,2.66-.631,7.239,7.239,0,0,0,.745-0.972c0.736-.643,1.527-1.033,2.2-1.579,0.245-.2.021-0.693,0.267-0.885a4.416,4.416,0,0,1,2.5-.526,13.932,13.932,0,0,1,1.978.41,30.586,30.586,0,0,0,3.508.03,4.364,4.364,0,0,0,2.049-.123c0.693-.437.889-1.242,1.473-1.88a3.834,3.834,0,0,1,2.188-1.077V227.3h-5.051v-2.42a4.813,4.813,0,0,0,1.055-1.194c0.28-.664.375-1.666,1.142-1.666a3.282,3.282,0,0,1,.723.081c0.306,0.067-.218.855,0.063,0.954a3.27,3.27,0,0,0,1.6,0c0.218-.052.529-0.374,0.683-0.374h2.193c0.578,0,.715.554,1.18,0.885-0.107-.989.358-1.847,0.358-2.867a0.814,0.814,0,0,0-.414-0.747c-0.2-.06-0.432.183-0.558-0.026a5.655,5.655,0,0,1,.095-1.426c-2.662-.163-4.255-0.715-6.8,0a2.571,2.571,0,0,1,0,.882,11.287,11.287,0,0,0-1.707.257c-0.323.012-.489-0.382-0.489-0.037,0,0.19-.03.438-0.22,0.438s-0.247-.219-0.438-0.219a4.5,4.5,0,0,0-.439-2.2,4.4,4.4,0,0,1-.879,0,6.759,6.759,0,0,0,.22-1.32,4.829,4.829,0,0,1-1.024.092c-0.166-.111.081-0.592-0.074-0.75,0.879-.111,2.2.137,2.2-0.772a0.69,0.69,0,0,1,.549-0.77,5.447,5.447,0,0,0,.833.261,2.215,2.215,0,0,0,.813-0.92h3.071a2.636,2.636,0,0,1,1.25.334c0.221,0.112.033,0.468,0.25,0.585a4.636,4.636,0,0,0,1.791.179,3.571,3.571,0,0,0,1.262-.168c0.408-.22.163-0.652,0.336-1.106a6.991,6.991,0,0,0,.817-2.247c0-.534-0.476.16-0.646-0.339-0.147-.422.03-1.118-0.159-1.7-0.125-.4-0.427-0.224-0.745-0.4a4.855,4.855,0,0,0-.426-0.636c-0.354,0-.879.138-0.879-0.222a29.436,29.436,0,0,1,0-3.079,2.5,2.5,0,0,0,.879.219v-4.621c-0.538-.212-0.934.112-1.248-0.258a5.8,5.8,0,0,1-.435-1.478c-0.159-.415-0.49.144-0.727-0.258-0.255-.431-0.416-1.817-0.659-2.186,0.409-.194,1.095.026,1.095-0.441,0-.5.77-0.3,1.1-0.661,0.4-.448-0.072-0.852-0.055-1.411,2.775-.088,5.557-0.147,8.346-0.152a12.7,12.7,0,0,0-1.2.665c-0.5.213-1.778,0.066-2.26,0.458-0.741.6-.194,1.622-0.659,2.421a6.481,6.481,0,0,0,1.757.661,2.181,2.181,0,0,0-.266,1.409,2.95,2.95,0,0,0,.885.69,6.735,6.735,0,0,1,1.137,1.64h1.756a1.405,1.405,0,0,1-.022-0.767,3.1,3.1,0,0,1,1.337-.114,2.141,2.141,0,0,1,1.659,1.093,12.089,12.089,0,0,0,1.739,1.421,6.614,6.614,0,0,0,1.21.348,3.273,3.273,0,0,0-.218.882c0.6,0,.933-0.031,1.535,0a1.574,1.574,0,0,0,.989,1.317h0.549a21.946,21.946,0,0,1,.657-3.519c0.056-.3-0.327-0.88,0-0.88,0.685,0,.878-0.855.878-1.542a12.731,12.731,0,0,0-.4-1.8c-0.314-1.109-.926-0.855-1.828-1.742-0.3-.3-0.549-0.724-0.841-1.074a10.04,10.04,0,0,0-1.593-1.492,273.534,273.534,0,0,1,37.469,3.447,13.93,13.93,0,0,1-3.866,2.319,5.82,5.82,0,0,1,3.073,2.385c-2.682,2.631-6.852.467-7.777,3.773-0.216.769,0.356,3.459,0.387,3.913,0.077,1.151-.1,3.075-0.038,4.474a2.026,2.026,0,0,0-1.692,1.448,0.525,0.525,0,0,1-.461-0.081,2.413,2.413,0,0,0-.34-0.8,3.139,3.139,0,0,0-1.128-.241,8.341,8.341,0,0,0-1.278.1c-0.4.059,0.081,0.6-.289,0.682a23.62,23.62,0,0,1-3.37-.119h-2.634v1.76c0.933,0.466,1.1,1.458,1.1,2.53a17.415,17.415,0,0,1-.641,2.9c-0.087.59,0.434,1.391-.237,1.391a2.086,2.086,0,0,0-1.775.96c-0.171.37,0.2,0.851,0.018,1.241a4.387,4.387,0,0,1-.868.518,3.36,3.36,0,0,0-.139.951,4.826,4.826,0,0,0-.529,1.61,5.007,5.007,0,0,0,.254,1.533,3.018,3.018,0,0,1,.624,1.547,7.981,7.981,0,0,1,1.1.221c-0.056.605,0.22,1.018,0.22,1.65,0,0.564-.677.23-1.072,0.519-0.443.327-.572,1.254-0.955,1.811a4.481,4.481,0,0,1-.608.2,5.083,5.083,0,0,0-.388,1.151c-0.159.292-.4-0.014-0.606,0.235-0.193.233-.392,0.871-0.624,1.243a1.455,1.455,0,0,1-.573.451,2.591,2.591,0,0,0-.706.243c-0.456.662-.279,1.88-0.187,2.813,0.041,0.418-.775.076-0.752,0.465,0.035,0.69.173,1.861,0.177,2.694a1.034,1.034,0,0,1-.068.825c-0.245.3-.59-0.029-0.9,0.184-0.409.279-.905,1.468-1.325,1.754-0.659.446-1.644,0.519-2,.861a1.82,1.82,0,0,0,.056,1.054c0,0.334-.2.758-0.165,1.05,0.059,0.429.688,0.174,0.815,0.542a4.879,4.879,0,0,1-.185,1.236c-0.025.566,0.192,1.177,0.192,1.682,1.237,0.248.764,1.925,0.764,3.19,0,1-.556,1.29-1.115,1.916-0.135.15-.163,0.428-0.306,0.615,0.547,0.275.358,1.018,0.657,1.541a1.666,1.666,0,0,0,.567.416c0.253,0.233-.05,1.116.218,1.388,0.3,0.311.87-.009,1.119,0.369,0.331,0.5-.011,1.044.29,1.567a3.982,3.982,0,0,0,.6.517c0.177,0.211.011,0.872,0.182,1.072,0.324,0.384.961,0.334,1.251,0.65a2.211,2.211,0,0,1,.166,1.281,6.075,6.075,0,0,1,.654.159c0.934-.06,1.786-0.247,2.858-0.379a7.1,7.1,0,0,0,1.929-.2,3.156,3.156,0,0,0,.892-1.164,6.726,6.726,0,0,1,.688-0.62,9.083,9.083,0,0,0,.787-1.79,1.012,1.012,0,0,1,1.077-.409c0.649,0,.762.973,1.269,1.179,0.349,0.139.907-.16,1.227,0.016,0.409,0.227.211,0.8,0.555,1.135,0.482,0.467,1.451,1.011,2,1.546a8.011,8.011,0,0,1,1.2,1.844c0.021,0.031-.191.176-0.169,0.206a2.182,2.182,0,0,0,.9.3c0.448,0.312.685,1.486,1.188,1.8,0.431,0.262,1.105-.341,1.588-0.1,0.31,0.158-.009.856,0.216,1.045a2.613,2.613,0,0,0,.38.261,3.81,3.81,0,0,0,.447.217c0.228,0.095.149,0.674,0.4,0.756,0.361,0.124,1.055-.247,1.416-0.079,0.408,0.189.46,1.469,0.654,1.823,0.176,0.315.481-.284,0.882-0.284a3.757,3.757,0,0,0,.775.181c0.431-.152.168-0.329,0.431-0.764,0.224-.372,1.24-0.864,1.606-1.342,0.254-.335-0.129-0.662.044-0.935a13.77,13.77,0,0,1,1.14-.8c0.228-.244.388-0.394,0.534-0.527a3.139,3.139,0,0,0,1.523.891,20.531,20.531,0,0,1-2.39-4.185,13.77,13.77,0,0,1,.071-10.529c12.238-33.074,26.487-72.656,33.551-92.446-0.769-.2-1.536-0.4-2.307-0.6a308.286,308.286,0,0,0-76.033-9.489c-124.011,0-230.887,73.365-279.937,179.14H0.4V371.6H805.455v-36.64H681.206ZM361.741,196.243a8.372,8.372,0,0,1-.413,2.233,7.548,7.548,0,0,1-1.535-.44,1.945,1.945,0,0,0,.223-0.659h-1.976a1.749,1.749,0,0,1-.658.439,1.214,1.214,0,0,1-.977-0.344,0.648,0.648,0,0,1-.07-0.376C358.134,196.8,359.935,196.507,361.741,196.243ZM224.6,308.937c-0.246-.175-0.857.258-0.967,0.011a10.2,10.2,0,0,1,.308-1.111,12.169,12.169,0,0,1-1.7.078c-0.153-.026-0.1-0.265-0.274-0.3,0.081-.219-0.143-0.447.079-0.528v-2.862c1.431-.485.936-2.635,1.225-4.144,0.034-.2.607,0.243,0.672,0.053v-0.88l-2.106.211-2.286-.211c-0.176.948-.1,2.235-0.529,2.919-0.168.268-.86-0.18-1.007,0.161-0.22.509,0.159,0.889,0.116,1.443a3.427,3.427,0,0,1-.54,1.135,1.435,1.435,0,0,1-.893.943,2.261,2.261,0,0,1-.486,1.814,3.967,3.967,0,0,1-1.707.165v0.88a1.174,1.174,0,0,0-1.316.66h-1.537a3.2,3.2,0,0,1-.268,1.319,2.765,2.765,0,0,1-.883.389,4.319,4.319,0,0,0-.314-1.682,3.555,3.555,0,0,0-1.388-1.345v-1.54H212.3a15.439,15.439,0,0,0,.258-2.426,7.734,7.734,0,0,0,.4-1.316h0.877c0-.74-0.509-1.629-0.244-2.177a4.922,4.922,0,0,1,1.126-.9,2,2,0,0,0,.436-1.33c0.881-.17,1.057-1.267,1.549-1.917,0.458-.611,1.252-0.752,1.3-1.6,2.828-.248,4.085-0.252,6.909-0.362L223.6,284.4l-0.542.335c-0.74.878-1.236,1.32-1.977,2.2H220.2c-0.145-.992-1.192-1.16-2.019-1.565-0.572-.282-0.82-0.894-1.494-1.076v-0.88c0.185-.2-0.147-0.384.047-0.558,0.827-.754,2.148-1.337,2.148-2.521,1.373-.277,1.92-1.156,2.855-2.2h6.584v0.878a4.288,4.288,0,0,1,1.212-.118c0.512,0.2.392,0.572,0.779,1.012a15.278,15.278,0,0,0,2.4,1.967v1.54a2.68,2.68,0,0,0-1.513.958c-0.254.523,0.1,1.137-.209,1.548-0.275.368-.9,0.087-1.352,0.356v2.86h-0.659v2.859h0.659v1.542a1.878,1.878,0,0,0,.877-0.221v1.431c0,0.334.718-.415,0.873-0.16,0.122,0.2-.314.686-0.283,1.1a1.067,1.067,0,0,0,.728.706v1.32a3.71,3.71,0,0,0,1.1,0,9.635,9.635,0,0,0,.658,3.08h-1.1a4.152,4.152,0,0,1-.084,1.385,1.057,1.057,0,0,1-.574-0.065l0.008,2.4h-1.678c-0.549-.139-1.795-0.269-2.1-0.736l-1.278-.125c0,0.275.222,0.384,0.222,0.661a4.8,4.8,0,0,1-1.189,3.041C225.286,307.939,224.6,308.027,224.6,308.937Zm243.855,26.025c0-.022-0.014-0.038-0.018-0.061-0.546-.026-0.973-0.05-1.52-0.05a4.705,4.705,0,0,0-.986.111h-4.149a1.889,1.889,0,0,0-.15-0.281c-0.408-.632.035-1.311-0.542-1.778-0.474-.381-0.874.185-1.171-0.272a5.3,5.3,0,0,0-1-1.677c-0.6-.275-0.985.261-1.45-0.234a6.734,6.734,0,0,1-.2-0.747c-0.24-.278-1.106-0.139-1.439-0.361-0.528-.357-0.58-1.016-1.213-1.092v-1.98a1.425,1.425,0,0,0,.874-1.1,1.408,1.408,0,0,0-.874-1.32V322.8c0.517,0,.792-0.221,1.314-0.221,1.4,0,2.139.8,3.293,1.541,1.1,0.688,2.333,1.1,2.41,2.421h0.878v1.32a2.072,2.072,0,0,1,1.516.384c0.245,0.3.086,0.93,0.461,1.155a11.027,11.027,0,0,0,1.459.178,1.789,1.789,0,0,1,.736,1.363h3.073v-0.88h1.976a2.39,2.39,0,0,0,.138,1.142,16.54,16.54,0,0,0,2.4,1.659,12.777,12.777,0,0,0,1.043.775c0.365,0.243,0,.81.4,1.007a8.7,8.7,0,0,0,2.2.249c0.128,0.018.249,0.046,0.374,0.068h-9.828Zm90.408-60.352h2.191v-0.659c1.4,0.549,1.787,1.623,2.857,2.64,0.531,0.5,1.3.746,1.748,1.173a1.8,1.8,0,0,1,.448,1.247,2.529,2.529,0,0,1,1.765.343c0.439,0.439.552,1.35,1.086,1.858,0.344,0.31,1.084.466,1.42,0.715a0.753,0.753,0,0,1,.116.714c0,1.431-1.37,1.843-2.2,2.969-0.155-.112-0.444.3-0.594,0.191a5.874,5.874,0,0,1-.521-0.655c-0.517-.5-1.463-0.79-1.787-1.421a3.12,3.12,0,0,1,.014-1.514h-0.981a2.568,2.568,0,0,0-.086-1.394c-0.345-.445-1.18-0.389-1.709-0.752a3.3,3.3,0,0,1-.263-0.614c-0.771-.96-1.3-1.748-1.925-2.545a3.169,3.169,0,0,0-1.584-1.416v-0.881Zm-13.508,48.208c-0.383,0-.048-0.679-0.426-0.679a1.235,1.235,0,0,0-.625.4c-0.188.1-.879,0.1-1.119,0.174a1.53,1.53,0,0,0-.125.3,1.037,1.037,0,0,1-.448.343c-0.92.1-2.228-.348-2.405,0.537a2.118,2.118,0,0,0-.47.207c-0.4.027-.861-0.11-1.372-0.11-0.491,0-.737.123-1.228,0.123-0.525,0-1.679.1-2.122,0.032-0.345-.055-0.013-0.215-0.112-0.615h-1.317v-0.879a7.054,7.054,0,0,1-1.493.1c-0.375-.111-0.177-0.822-0.513-0.839-0.607-.03-1.029.333-1.374,0.069a1.083,1.083,0,0,1-.2-0.736h-1.537v-0.881h-1.317l0.107,0.946h-4.609a21.917,21.917,0,0,1-.746,3.6c-0.158.593,0.048,0.782-.571,1.188a26.2,26.2,0,0,1-3.031,1.012c-0.4.176-.337,0.724-0.714,0.849a15.377,15.377,0,0,0-1.921.422c-0.507.276-.546-0.144-0.7,0.578-0.249,0,.082.247-0.172,0.313a7.288,7.288,0,0,1-2.429.094v-0.661a3.937,3.937,0,0,0-2.022-.171v-0.879c-1.981-.165-3.151-0.205-5.1-0.453l-0.064-13.1h-0.655c0-.631.069-1.732-0.533-1.87,0-1.051-.611-1.458-0.96-2.3-0.31-.757-0.344-1.948-0.595-2.774-0.076-.247.312-0.374,0.237-0.646a1.141,1.141,0,0,0,1.132-.467c0.384-.466.267-1.13,0.844-1.294,0.457-.143,1.013.261,1.4,0.107a2.752,2.752,0,0,0,.873-1.34c0.139-.239.457-0.294,0.582-0.528a3.922,3.922,0,0,1,1.67.572c0.288,0.35.1,1.065,0.522,1.409a6.478,6.478,0,0,0,1.842.471c0.422,0.13.353,0.381,0.353,0.848,0,1.073-.793,1.513-1.318,2.421v0.66c0.961,0.221,1.977.359,2.2,1.32a7.5,7.5,0,0,1,1.3.1,1.3,1.3,0,0,1,.792.545c0.426,0.408.1,0.926,0.1,1.555h2.2a2.858,2.858,0,0,1,.086-1.031c0.206-.269.873-0.337,0.989-0.546a2.149,2.149,0,0,1,.34-0.872,23.883,23.883,0,0,0,2.084-1.631c0.293-.377.668-0.174,0.668-0.759a4.157,4.157,0,0,0-.327-0.62,3.138,3.138,0,0,0-.13-0.963,5.555,5.555,0,0,0-.692-0.851,2.39,2.39,0,0,0-.879-0.909,16.12,16.12,0,0,0-3.087-.533,5.7,5.7,0,0,0-1.3-.357l0.327-1.44c0-.634.443,0.092,0.715-0.459,0.384-.769-0.263-2.1.59-2.291,0-.853-0.1-1.506.616-1.919,0.5-.276,1.178-0.111,1.317-0.66h1.316c1.644,0.082,2.222,1.374,3.731,1.979v3.741c-0.374.149-.387,1.029-0.666,1.243-0.126.1-.466-0.407-0.654-0.362V305.2a5.5,5.5,0,0,0,.357,1.291c0.193,0.26.719,0.375,0.883,0.627a1.753,1.753,0,0,0,.08.722,1.734,1.734,0,0,0,1.244.207c0.776-.014,1.533-0.207,2.484-0.207a1.041,1.041,0,0,1,.633.079,1.687,1.687,0,0,1,.026.581h1.536c0.112,2.2,3.1,2.257,3.508,4.4h1.981a7.291,7.291,0,0,1,1.463-.386c1.06-.063,2.024.084,2.27-0.933H540.2v0.658a5.958,5.958,0,0,1,1.7-.163c0.408,0.226.182,1.006,0.616,1.282s1.153,0.315,1.532.616a7.657,7.657,0,0,1,.258.794,2.5,2.5,0,0,0,1.606.332,2.634,2.634,0,0,0,.163.709c0.345,0.453,1.1.206,1.374,0.831a2.829,2.829,0,0,1-.134,1.8,5.126,5.126,0,0,0,.134,1.279,13.633,13.633,0,0,0,.219,2.419A22.029,22.029,0,0,1,545.352,322.819Zm34.688,3.537h-0.878l-0.108,1.946c-0.485-.089-0.262.264-0.744,0.144a23.11,23.11,0,0,1-3.616-1.46c-0.365-.18-0.274-0.611-0.667-0.758a8.682,8.682,0,0,0-2.286-.442c-0.146-.012.225-0.345,0.069-0.345-0.082-.715-0.768-0.908-1.1-1.54-0.211-.39-0.2-1.146-0.422-1.5a4.793,4.793,0,0,1-.676-0.459,7.531,7.531,0,0,0-.039-1.009c-0.163-.294-0.663-0.205-0.835-0.533-0.142-.261.207-0.85,0-1.114a3.193,3.193,0,0,0-.818-0.28,13.348,13.348,0,0,0-1.338-1.163,2.971,2.971,0,0,1-1.2-.7,1.708,1.708,0,0,1-.044-1l-0.981.065c0.086-.686.154-1.471,0.279-2.006,0.073-.3.409-0.584,0.479-0.881a15.116,15.116,0,0,0,.322-1.737l-0.946.261,0.068-.261a3.154,3.154,0,0,0-1.08-1.915c-0.271-.338-0.2-0.664-0.688-0.664-0.779,0-1.563.668-2.231,0.806-0.156.032,0.013-.413-0.168-0.429-0.142-.018-0.572.3-0.745,0.279a0.741,0.741,0,0,1-.452-0.723h-0.977c-0.168-1.183-1.739-1.22-2.286-2.291s0.418-2.073-.133-3.144c-0.225-.451-0.259-0.133-0.6-0.371a5.007,5.007,0,0,1-1.292-2.053l-6.375-.147,0.134-.131c-0.392-.531-1.357-0.48-1.825-0.859-0.318-.255-0.129-0.989-0.464-1.142-0.607-.276-1.306-0.176-1.684-0.717a6.106,6.106,0,0,1-.419-2.562c0-3.1.569-5.308,0.2-8.188-0.03-.232-0.58-0.015-0.615-0.264l0.193-.13-0.263-1.248,0.263-.732c0.095-.076-0.082-0.342,0-0.409a3.592,3.592,0,0,1,1.3-.4,2.437,2.437,0,0,0,.891-0.073,1.515,1.515,0,0,0,.03-0.552,5.627,5.627,0,0,1,1-1.363,5.18,5.18,0,0,1,1.071-.275,2.906,2.906,0,0,1,.552-0.4c0.094,0,.119.393,0.206,0.393a1.564,1.564,0,0,1,1.464.744c0.168,0.444-.061,1.325.293,1.676,0.258,0.262.744,0.079,0.964,0.419,0.236,0.364.206,1.252,0.46,1.506,0.418,0.41.947,0.422,1.326,0.837a6.008,6.008,0,0,1,.543.541c0.572,0.769.356,1.98,1.313,2.2a8.6,8.6,0,0,1-1.111,1.184,1.248,1.248,0,0,0-.817.4c-0.275.6,0.367,0.97-.042,1.491-0.389.5-1.317,0.358-1.317,0.99,0,1.43,1.751,1.871,3.181,1.871,0.986,0,1.536-.441,2.527-0.441,0.27,0,.383.221,0.652,0.221v0.66c1.922,0.44,3.075,0,5.051,0a5.615,5.615,0,0,0,.586,1.758,8.912,8.912,0,0,0,.176,1.259c0.112,0.19.422,0.054,0.525,0.247a11.526,11.526,0,0,0,.361,1.284c0.336,0.42,1.095.144,1.279,0.662a5.65,5.65,0,0,1-.078,1.612,17.307,17.307,0,0,1,1.921.553c0.435,0.182.176,0.262,0.279,0.767a13.344,13.344,0,0,0,1.623-.05,1.68,1.68,0,0,1,1.171-.005,1.533,1.533,0,0,1,.056.716h1.536a6.872,6.872,0,0,0,.048,1.989c0.1,0.235.482-.052,0.611,0.21a8.662,8.662,0,0,1,.048,2.083c0.043,0.285.291,0.045,0.61,0.117,0,0.935-.52,1.87.221,2.42a7.876,7.876,0,0,0,1.8.4,0.833,0.833,0,0,1,.173.7,2.505,2.505,0,0,1,1.045.075,8.459,8.459,0,0,0,.716.657c0.461,0.15,1.145-.2,1.463-0.006a1.971,1.971,0,0,1,.288,1.475v2.861h0.874c0,2,.177,3.371.212,5.053C580.152,323.987,580.04,325.195,580.04,326.355Z" transform="translate(0 0)"/>
  </g>
</svg>
